<svg xmlns="http://www.w3.org/2000/svg" xmlns:xlink="http://www.w3.org/1999/xlink" version="1.1" width="1440.0000254313152" height="1449.0000089009602" style="width: 1440.0000254313152px; height: 1449.0000089009602px; background: #111111" viewBox="150 110.0000063578288 1440.0000254313152 1449.0000089009602"><style id="v-3" type="text/css">        .joint-element .scalable * {            vector-effect: non-scaling-stroke;        }    </style><defs joint-selector="defs"><marker id="v-2-381586655" orient="auto" overflow="visible" markerUnits="userSpaceOnUse"><path id="v-78" stroke="#eeea1e" fill="#eeea1e" transform="rotate(180)" d="M 20 -10 0 0 20 10 Z"></path></marker></defs><g joint-selector="layers"  transform="matrix(1,0,0,1,0,0)"><g  style="pointer-events: none;"></g><g ></g><g  style="user-select: none;"><!--z-index:1--><!--z-index:2--><!--z-index:3--><!--z-index:4--><!--z-index:5--><!--z-index:6--><!--z-index:7--><!--z-index:8--><!--z-index:9--><!--z-index:10--><!--z-index:11--><!--z-index:12--><g   id="j_101"  transform="translate(20,1706)"><g id="v-1031"><text  id="v-1032" font-size="24px" xml:space="preserve" y="0.8em" font-weight="normal" text-anchor="start" fill="#cccccc" pointer-events="none" display="block" font-family="Tahoma, Verdana, Helvetica, Arial"><tspan dy="0"  display="none">Thursday, 6 August 2026 at 15:12 Central European Summer Time</tspan></text></g></g><!--z-index:13--><g   id="j_100"  transform="translate(20,1660)"><g id="v-1029"><text  id="v-1030" font-size="36px" xml:space="preserve" y="0.8em" font-weight="normal" text-anchor="start" fill="#cccccc" pointer-events="none" display="block" font-family="Tahoma, Verdana, Helvetica, Arial"><tspan dy="0"  display="none">Container View: Local Kubernetes Platform</tspan></text></g></g><!--z-index:14--><g   id="j_103"  transform="translate(200,160)" style="; opacity: 1;"><g id="v-1040"><rect  id="v-1041" width="1340" height="1036" rx="20" ry="20" stroke-width="3" pointer-events="none" stroke="#023d8a" fill="#111111" opacity="1" stroke-dasharray=""></rect><text  id="v-1042" font-size="33.599999999999994px" xml:space="preserve" y="1021" font-weight="bold" text-anchor="start" pointer-events="visible" font-family="Tahoma, Verdana, Helvetica, Arial" fill="#dfdada" transform="matrix(1,0,0,1,15,0)"><tspan dy="0" >Local Kubernetes Platform</tspan></text><text  id="v-1043" font-size="16.799999999999997px" xml:space="preserve" display="none" y="1021" font-weight="normal" text-anchor="start" pointer-events="visible" font-family="Tahoma, Verdana, Helvetica, Arial" fill="#dfdada" transform="matrix(1,0,0,1,15,0)"><tspan dy="0" style="fill-opacity: 0; stroke-opacity: 0;" >-</tspan></text><image  id="v-1044" pointer-events="visible"></image></g></g><!--z-index:15--><g   id="j_102"  transform="translate(250,433)" style=""><g  id="v-1033" style="opacity: 1;"><rect  id="v-1034" rx="20" ry="20" stroke-width="2" pointer-events="visiblePainted" fill="#005eb6" stroke="#0b3c86" stroke-dasharray="" width="450" height="300" style="fill: rgb(0, 94, 182); stroke: rgb(11, 60, 134);"></rect><text  id="v-1035" font-size="28px" xml:space="preserve" y="118.5" font-weight="bold" text-anchor="middle" pointer-events="visible" font-family="Tahoma, Verdana, Helvetica, Arial" fill="#dfdada" dominant-baseline="hanging" transform="matrix(1,0,0,1,225,0)" style="fill: rgb(223, 218, 218);"><tspan dy="0" >FastAPI Service</tspan></text><text  id="v-1036" font-size="14px" xml:space="preserve" display="none" y="118.5" text-anchor="middle" font-family="Tahoma, Verdana, Helvetica, Arial" fill="#dfdada" dominant-baseline="hanging" transform="matrix(1,0,0,1,225,0)" style="display: block; fill: rgb(223, 218, 218);"><tspan dy="0"  style="fill-opacity: 0; stroke-opacity: 0;">-</tspan></text><text  id="v-1037" font-size="20px" xml:space="preserve" y="161.5" text-anchor="middle" font-family="Tahoma, Verdana, Helvetica, Arial" fill="#dfdada" dominant-baseline="hanging" transform="matrix(1,0,0,1,225,0)" style="display: block; fill: rgb(223, 218, 218);"><tspan dy="0" >Serves REST API endpoints.</tspan></text><g  id="v-1038" color="#dfdada" transform="matrix(1,0,0,1,210,268)" display="none" style="fill: rgb(223, 218, 218);"><g  transform="translate(5 0)"><svg xmlns="http://www.w3.org/2000/svg" width="20" height="20" fill="currentColor" viewBox="0 0 16 16"><path fill-rule="evenodd" d="M6.5 12a5.5 5.5 0 1 0 0-11 5.5 5.5 0 0 0 0 11zM13 6.5a6.5 6.5 0 1 1-13 0 6.5 6.5 0 0 1 13 0z"></path><path d="M10.344 11.742c.03.04.062.078.098.115l3.85 3.85a1 1 0 0 0 1.415-1.414l-3.85-3.85a1.007 1.007 0 0 0-.115-.1 6.538 6.538 0 0 1-1.398 1.4z"></path><path fill-rule="evenodd" d="M6.5 3a.5.5 0 0 1 .5.5V6h2.5a.5.5 0 0 1 0 1H7v2.5a.5.5 0 0 1-1 0V7H3.5a.5.5 0 0 1 0-1H6V3.5a.5.5 0 0 1 .5-.5z"></path></svg></g><g ></g><g ></g><g ></g></g><image  id="v-1039"></image></g></g><!--z-index:16--><g   id="j_104"  transform="translate(250,783)" style=""><g  id="v-1048" style="opacity: 1;"><rect  id="v-1049" rx="20" ry="20" stroke-width="2" pointer-events="visiblePainted" fill="#005eb6" stroke="#0b3c86" stroke-dasharray="" width="450" height="300" style="fill: rgb(0, 94, 182); stroke: rgb(11, 60, 134);"></rect><text  id="v-1050" font-size="28px" xml:space="preserve" y="118.5" font-weight="bold" text-anchor="middle" pointer-events="visible" font-family="Tahoma, Verdana, Helvetica, Arial" fill="#dfdada" dominant-baseline="hanging" transform="matrix(1,0,0,1,225,0)" style="fill: rgb(223, 218, 218);"><tspan dy="0" >Django Service</tspan></text><text  id="v-1051" font-size="14px" xml:space="preserve" display="none" y="118.5" text-anchor="middle" font-family="Tahoma, Verdana, Helvetica, Arial" fill="#dfdada" dominant-baseline="hanging" transform="matrix(1,0,0,1,225,0)" style="display: block; fill: rgb(223, 218, 218);"><tspan dy="0"  style="fill-opacity: 0; stroke-opacity: 0;">-</tspan></text><text  id="v-1052" font-size="20px" xml:space="preserve" y="161.5" text-anchor="middle" font-family="Tahoma, Verdana, Helvetica, Arial" fill="#dfdada" dominant-baseline="hanging" transform="matrix(1,0,0,1,225,0)" style="display: block; fill: rgb(223, 218, 218);"><tspan dy="0" >Serves the Django web application.</tspan></text><g  id="v-1053" color="#dfdada" transform="matrix(1,0,0,1,210,268)" display="none" style="fill: rgb(223, 218, 218);"><g  transform="translate(5 0)"><svg xmlns="http://www.w3.org/2000/svg" width="20" height="20" fill="currentColor" viewBox="0 0 16 16"><path fill-rule="evenodd" d="M6.5 12a5.5 5.5 0 1 0 0-11 5.5 5.5 0 0 0 0 11zM13 6.5a6.5 6.5 0 1 1-13 0 6.5 6.5 0 0 1 13 0z"></path><path d="M10.344 11.742c.03.04.062.078.098.115l3.85 3.85a1 1 0 0 0 1.415-1.414l-3.85-3.85a1.007 1.007 0 0 0-.115-.1 6.538 6.538 0 0 1-1.398 1.4z"></path><path fill-rule="evenodd" d="M6.5 3a.5.5 0 0 1 .5.5V6h2.5a.5.5 0 0 1 0 1H7v2.5a.5.5 0 0 1-1 0V7H3.5a.5.5 0 0 1 0-1H6V3.5a.5.5 0 0 1 .5-.5z"></path></svg></g><g ></g><g ></g><g ></g></g><image  id="v-1054"></image></g></g><!--z-index:17--><g   id="j_105"  transform="translate(1040,210)" style=""><g  id="v-1058" style="opacity: 1;"><path  d="M 0,30 a 225,30 0,0,0 450 0 a 225,30 0,0,0 -450 0 l 0,240 a 225,30 0,0,0 450 0 l 0,-240" id="v-1059" stroke-width="2" pointer-events="visiblePainted" fill="#06885d" stroke="#065740" stroke-dasharray="" style="fill: rgb(6, 136, 93); stroke: rgb(6, 87, 64);"></path><rect  id="v-1060" stroke-width="0" pointer-events="visiblePainted" fill="none" stroke="none" width="450" height="270" x="0" y="30"></rect><text  id="v-1061" font-size="28px" xml:space="preserve" y="133.5" font-weight="bold" text-anchor="middle" pointer-events="visible" font-family="Tahoma, Verdana, Helvetica, Arial" fill="#dfdada" dominant-baseline="hanging" transform="matrix(1,0,0,1,225,0)" style="fill: rgb(223, 218, 218);"><tspan dy="0" >FastAPI Database</tspan></text><text  id="v-1062" font-size="14px" xml:space="preserve" display="none" y="133.5" text-anchor="middle" font-family="Tahoma, Verdana, Helvetica, Arial" fill="#dfdada" dominant-baseline="hanging" transform="matrix(1,0,0,1,225,0)" style="display: block; fill: rgb(223, 218, 218);"><tspan dy="0"  style="fill-opacity: 0; stroke-opacity: 0;">-</tspan></text><text  id="v-1063" font-size="20px" xml:space="preserve" y="176.5" text-anchor="middle" font-family="Tahoma, Verdana, Helvetica, Arial" fill="#dfdada" dominant-baseline="hanging" transform="matrix(1,0,0,1,225,0)" style="display: block; fill: rgb(223, 218, 218);"><tspan dy="0" >Stores FastAPI application data.</tspan></text><g  id="v-1064" font-weight="normal" text-anchor="middle" color="#dfdada" transform="matrix(1,0,0,1,222.5,268)" display="none" style="fill: rgb(223, 218, 218);"><g ></g><g ></g><g ></g><g ></g></g><image  id="v-1065"></image></g></g><!--z-index:18--><g   id="j_106"  transform="translate(1040,560)" style=""><g  id="v-1069" style="opacity: 1;"><path  d="M 0,30 a 225,30 0,0,0 450 0 a 225,30 0,0,0 -450 0 l 0,240 a 225,30 0,0,0 450 0 l 0,-240" id="v-1070" stroke-width="2" pointer-events="visiblePainted" fill="#06885d" stroke="#065740" stroke-dasharray="" style="fill: rgb(6, 136, 93); stroke: rgb(6, 87, 64);"></path><rect  id="v-1071" stroke-width="0" pointer-events="visiblePainted" fill="none" stroke="none" width="450" height="270" x="0" y="30"></rect><text  id="v-1072" font-size="28px" xml:space="preserve" y="133.5" font-weight="bold" text-anchor="middle" pointer-events="visible" font-family="Tahoma, Verdana, Helvetica, Arial" fill="#dfdada" dominant-baseline="hanging" transform="matrix(1,0,0,1,225,0)" style="fill: rgb(223, 218, 218);"><tspan dy="0" >Django Database</tspan></text><text  id="v-1073" font-size="14px" xml:space="preserve" display="none" y="133.5" text-anchor="middle" font-family="Tahoma, Verdana, Helvetica, Arial" fill="#dfdada" dominant-baseline="hanging" transform="matrix(1,0,0,1,225,0)" style="display: block; fill: rgb(223, 218, 218);"><tspan dy="0"  style="fill-opacity: 0; stroke-opacity: 0;">-</tspan></text><text  id="v-1074" font-size="20px" xml:space="preserve" y="176.5" text-anchor="middle" font-family="Tahoma, Verdana, Helvetica, Arial" fill="#dfdada" dominant-baseline="hanging" transform="matrix(1,0,0,1,225,0)" style="display: block; fill: rgb(223, 218, 218);"><tspan dy="0" >Stores Django application data.</tspan></text><g  id="v-1075" font-weight="normal" text-anchor="middle" color="#dfdada" transform="matrix(1,0,0,1,222.5,268)" display="none" style="fill: rgb(223, 218, 218);"><g ></g><g ></g><g ></g><g ></g></g><image  id="v-1076"></image></g></g><!--z-index:19--><g   id="j_107"  transform="translate(1040,1209)" style=""><g  id="v-1080" style="opacity: 1;"><rect  id="v-1081" rx="20" ry="20" stroke-width="3" pointer-events="visiblePainted" fill="#0b3f8d" stroke="#023d8a" stroke-dasharray="" width="450" height="300" style="fill: rgb(11, 63, 141); stroke: rgb(2, 61, 138);"></rect><text  id="v-1082" font-size="28px" xml:space="preserve" y="118.5" font-weight="bold" text-anchor="middle" pointer-events="visible" font-family="Tahoma, Verdana, Helvetica, Arial" fill="#dfdada" dominant-baseline="hanging" transform="matrix(1,0,0,1,225,0)" style="fill: rgb(223, 218, 218);"><tspan dy="0" >Vault</tspan></text><text  id="v-1083" font-size="14px" xml:space="preserve" display="none" y="118.5" text-anchor="middle" font-family="Tahoma, Verdana, Helvetica, Arial" fill="#dfdada" dominant-baseline="hanging" transform="matrix(1,0,0,1,225,0)" style="display: block; fill: rgb(223, 218, 218);"><tspan dy="0"  style="fill-opacity: 0; stroke-opacity: 0;">-</tspan></text><text  id="v-1084" font-size="20px" xml:space="preserve" y="161.5" text-anchor="middle" font-family="Tahoma, Verdana, Helvetica, Arial" fill="#dfdada" dominant-baseline="hanging" transform="matrix(1,0,0,1,225,0)" style="display: block; fill: rgb(223, 218, 218);"><tspan dy="0" >Stores and injects application secrets.</tspan></text><g  id="v-1085" color="#dfdada" transform="matrix(1,0,0,1,222.5,268)" display="none" style="fill: rgb(223, 218, 218);"><g ></g><g ></g><g ></g><g ></g></g><image  id="v-1086"></image></g></g><!--z-index:20--><g   id="j_108"  style="opacity: 1;"><path fill="none" cursor="pointer" stroke="transparent" stroke-linecap="round" joint-selector="wrapper" id="v-1101" stroke-width="10" stroke-linejoin="round" d="M 475 433 L 475 370 C 474.99999999999994 363.3333333333333 478.33333333333326 360 485 360 L 860 360 C 866.6666666666666 360 873.3333333333333 360 880 360 L 1040 360"></path><path fill="none" pointer-events="none" joint-selector="line" id="v-1100" stroke="#eeea1e" stroke-width="2" stroke-linejoin="round" stroke-dasharray="" d="M 475 433 L 475 370 C 474.99999999999994 363.3333333333333 478.33333333333326 360 485 360 L 860 360 C 866.6666666666666 360 873.3333333333333 360 880 360 L 1040 360" marker-end="url(#v-2-381586655)"></path><g id="v-1090" ><g id="v-1091"  label-idx="0" cursor="move" transform="matrix(1,0,0,1,744.8519287109375,349.3999938964844)" style="cursor: default;"><rect joint-selector="rect" id="v-1095" fill="#111111" rx="3" ry="3" x="-93.603515625" y="-21.466665267944336" width="188.75222778320312" height="40.03333282470703" pointer-events="none"  style="display: block;"></rect><text joint-selector="text" id="v-1094" font-size="16px" xml:space="preserve" fill="#eeea1e" text-anchor="middle" pointer-events="none" font-family="Tahoma, Verdana, Helvetica, Arial" font-weight="normal"  style="display: block;"><tspan dy="-0.3em" >Reads from, writes to, and</tspan><tspan dy="1.2em" x="0" >migrates via Alembic</tspan></text></g><g id="v-1092"  label-idx="1" cursor="move" transform="matrix(1,0,0,1,744.8519287109375,382.6000061035156)" style="cursor: default;"><rect joint-selector="rect" id="v-1097" fill="#111111" rx="3" ry="3" x="-14.143879890441895" y="-7.056666374206543" width="28.28775978088379" height="12.5"  pointer-events="none" style="display: block;"></rect><text joint-selector="text" id="v-1096" font-size="11.2px" xml:space="preserve" fill="#eeea1e" text-anchor="middle" pointer-events="none" font-family="Tahoma, Verdana, Helvetica, Arial" font-weight="normal"  style="display: block;"><tspan dy="0.3em" >[SQL]</tspan></text></g><g id="v-1093"  label-idx="2" cursor="move" transform="matrix(1,0,0,1,712.8847045898438,388.20001220703125)" style="cursor: default;"><rect joint-selector="rect" id="v-1099" fill="#ffffff" rx="3" ry="3" x="0" y="-5.684341886080802e-14" width="0" height="0"  display="none"></rect><text joint-selector="text" id="v-1098" fill="#000000" font-size="14" text-anchor="middle" text-vertical-anchor="middle" pointer-events="none"></text></g></g></g><!--z-index:21--><g   id="j_109"  style="opacity: 1;"><path fill="none" cursor="pointer" stroke="transparent" stroke-linecap="round" joint-selector="wrapper" id="v-1116" stroke-width="10" stroke-linejoin="round" d="M 475 783 L 475 720 C 474.99999999999994 713.3333333333333 478.33333333333326 710 485 710 L 860 710 C 866.6666666666666 710 873.3333333333333 710 880 710 L 1040 710"></path><path fill="none" pointer-events="none" joint-selector="line" id="v-1115" stroke="#eeea1e" stroke-width="2" stroke-linejoin="round" stroke-dasharray="" d="M 475 783 L 475 720 C 474.99999999999994 713.3333333333333 478.33333333333326 710 485 710 L 860 710 C 866.6666666666666 710 873.3333333333333 710 880 710 L 1040 710" marker-end="url(#v-2-381586655)"></path><g id="v-1105" ><g id="v-1106"  label-idx="0" cursor="move" transform="matrix(1,0,0,1,744.8519287109375,699.4000244140625)" style="cursor: default;"><rect joint-selector="rect" id="v-1110" fill="#111111" rx="3" ry="3" x="-93.603515625" y="-21.466665267944336" width="188.75222778320312" height="40.03333282470703" pointer-events="none"  style="display: block;"></rect><text joint-selector="text" id="v-1109" font-size="16px" xml:space="preserve" fill="#eeea1e" text-anchor="middle" pointer-events="none" font-family="Tahoma, Verdana, Helvetica, Arial" font-weight="normal"  style="display: block;"><tspan dy="-0.3em" >Reads from, writes to, and</tspan><tspan dy="1.2em" x="0" >migrates via Django ORM</tspan></text></g><g id="v-1107"  label-idx="1" cursor="move" transform="matrix(1,0,0,1,744.8519287109375,732.5999755859375)" style="cursor: default;"><rect joint-selector="rect" id="v-1112" fill="#111111" rx="3" ry="3" x="-14.143879890441895" y="-7.056666374206543" width="28.28775978088379" height="12.5"  pointer-events="none" style="display: block;"></rect><text joint-selector="text" id="v-1111" font-size="11.2px" xml:space="preserve" fill="#eeea1e" text-anchor="middle" pointer-events="none" font-family="Tahoma, Verdana, Helvetica, Arial" font-weight="normal"  style="display: block;"><tspan dy="0.3em" >[SQL]</tspan></text></g><g id="v-1108"  label-idx="2" cursor="move" transform="matrix(1,0,0,1,712.8847045898438,738.2000122070312)" style="cursor: default;"><rect joint-selector="rect" id="v-1114" fill="#ffffff" rx="3" ry="3" x="0" y="0" width="0" height="0"  display="none"></rect><text joint-selector="text" id="v-1113" fill="#000000" font-size="14" text-anchor="middle" text-vertical-anchor="middle" pointer-events="none"></text></g></g></g><!--z-index:22--><g   id="j_110"  style="opacity: 1;"><path fill="none" cursor="pointer" stroke="transparent" stroke-linecap="round" joint-selector="wrapper" id="v-1131" stroke-width="10" stroke-linejoin="round" d="M 475 733 L 475 797 C 474.99999999999994 803.5333333333332 478.33333333333326 806.8666666666666 485 807 L 860 807 C 866.6666666666666 806.8666666666666 873.3333333333333 806.8666666666666 880 807 L 1255 807 C 1261.6666666666665 806.8666666666666 1265 810.1999999999998 1265 817 L 1265 1209"></path><path fill="none" pointer-events="none" joint-selector="line" id="v-1130" stroke="#eeea1e" stroke-width="2" stroke-linejoin="round" stroke-dasharray="" d="M 475 733 L 475 797 C 474.99999999999994 803.5333333333332 478.33333333333326 806.8666666666666 485 807 L 860 807 C 866.6666666666666 806.8666666666666 873.3333333333333 806.8666666666666 880 807 L 1255 807 C 1261.6666666666665 806.8666666666666 1265 810.1999999999998 1265 817 L 1265 1209" marker-end="url(#v-2-381586655)"></path><g id="v-1120" ><g id="v-1121"  label-idx="0" cursor="move" transform="matrix(1,0,0,1,760.8160400390625,796.4000244140625)" style="cursor: default;"><rect joint-selector="rect" id="v-1125" fill="#111111" rx="3" ry="3" x="-67.41535949707031" y="-11.866666793823242" width="135.96585083007812" height="20.833332061767578" pointer-events="none"  style="display: block;"></rect><text joint-selector="text" id="v-1124" font-size="16px" xml:space="preserve" fill="#eeea1e" text-anchor="middle" pointer-events="none" font-family="Tahoma, Verdana, Helvetica, Arial" font-weight="normal"  style="display: block;"><tspan dy="0.3em" >Reads secrets from</tspan></text></g><g id="v-1122"  label-idx="1" cursor="move" transform="matrix(1,0,0,1,760.8160400390625,820)" style="cursor: default;"><rect joint-selector="rect" id="v-1127" fill="#111111" rx="3" ry="3" x="-20.52408790588379" y="-7.056666374206543" width="41.04817581176758" height="12.5"  pointer-events="none" style="display: block;"></rect><text joint-selector="text" id="v-1126" font-size="11.2px" xml:space="preserve" fill="#eeea1e" text-anchor="middle" pointer-events="none" font-family="Tahoma, Verdana, Helvetica, Arial" font-weight="normal"  style="display: block;"><tspan dy="0.3em" >[HTTPS]</tspan></text></g><g id="v-1123"  label-idx="2" cursor="move" transform="matrix(1,0,0,1,1024.07470703125,825.5999755859375)" style="cursor: default;"><rect joint-selector="rect" id="v-1129" fill="#ffffff" rx="3" ry="3" x="0" y="0" width="0" height="0"  display="none"></rect><text joint-selector="text" id="v-1128" fill="#000000" font-size="14" text-anchor="middle" text-vertical-anchor="middle" pointer-events="none"></text></g></g></g><!--z-index:23--><g   id="j_111"  style="opacity: 1;"><path fill="none" cursor="pointer" stroke="transparent" stroke-linecap="round" joint-selector="wrapper" id="v-1146" stroke-width="10" stroke-linejoin="round" d="M 700 933 L 860 933 C 866.6666666666666 933 870 936.3333333333333 870 943 L 870 1015 C 870 1021.9333333333334 870 1028.6 870 1035 L 870 1349 C 870 1355.6666666666665 873.3333333333333 1359 880 1359 L 1040 1359"></path><path fill="none" pointer-events="none" joint-selector="line" id="v-1145" stroke="#eeea1e" stroke-width="2" stroke-linejoin="round" stroke-dasharray="" d="M 700 933 L 860 933 C 866.6666666666666 933 870 936.3333333333333 870 943 L 870 1015 C 870 1021.9333333333334 870 1028.6 870 1035 L 870 1349 C 870 1355.6666666666665 873.3333333333333 1359 880 1359 L 1040 1359" marker-end="url(#v-2-381586655)"></path><g id="v-1135" ><g id="v-1136"  label-idx="0" cursor="move" transform="matrix(1,0,0,1,870,1044.0758056640625)" style="cursor: default;"><rect joint-selector="rect" id="v-1140" fill="#111111" rx="3" ry="3" x="-67.41535949707031" y="-11.866666793823242" width="135.96585083007812" height="20.833332061767578" pointer-events="none"  style="display: block;"></rect><text joint-selector="text" id="v-1139" font-size="16px" xml:space="preserve" fill="#eeea1e" text-anchor="middle" pointer-events="none" font-family="Tahoma, Verdana, Helvetica, Arial" font-weight="normal"  style="display: block;"><tspan dy="0.3em" >Reads secrets from</tspan></text></g><g id="v-1137"  label-idx="1" cursor="move" transform="matrix(1,0,0,1,870,1067.67578125)" style="cursor: default;"><rect joint-selector="rect" id="v-1142" fill="#111111" rx="3" ry="3" x="-20.52408790588379" y="-7.056666374206543" width="41.04817581176758" height="12.5"  pointer-events="none" style="display: block;"></rect><text joint-selector="text" id="v-1141" font-size="11.2px" xml:space="preserve" fill="#eeea1e" text-anchor="middle" pointer-events="none" font-family="Tahoma, Verdana, Helvetica, Arial" font-weight="normal"  style="display: block;"><tspan dy="0.3em" >[HTTPS]</tspan></text></g><g id="v-1138"  label-idx="2" cursor="move" transform="matrix(1,0,0,1,860,1164.5999755859375)" style="cursor: default;"><rect joint-selector="rect" id="v-1144" fill="#ffffff" rx="3" ry="3" x="0" y="0" width="0" height="0"  display="none"></rect><text joint-selector="text" id="v-1143" fill="#000000" font-size="14" text-anchor="middle" text-vertical-anchor="middle" pointer-events="none"></text></g></g></g><!--z-index:24--><!--z-index:25--><!--z-index:26--><!--z-index:27--><!--z-index:28--><!--z-index:29--><!--z-index:30--></g><g  style="user-select: none;"></g><g ></g><g  display="none"></g></g></svg>