<svg xmlns="http://www.w3.org/2000/svg" xmlns:xlink="http://www.w3.org/1999/xlink" version="1.1" width="1539.9999299185615" height="757.9999842325847" style="width: 1539.9999299185615px; height: 757.9999842325847px; background: #111111" viewBox="150.00000788370767 109.99999861944289 1539.9999299185615 757.9999842325847"><style id="v-3" type="text/css">        .joint-element .scalable * {            vector-effect: non-scaling-stroke;        }    </style><defs joint-selector="defs"><marker id="v-2-381586655" orient="auto" overflow="visible" markerUnits="userSpaceOnUse"><path id="v-103" stroke="#eeea1e" fill="#eeea1e" transform="rotate(180)" d="M 20 -10 0 0 20 10 Z"></path></marker></defs><g joint-selector="layers"  transform="matrix(1,0,0,1,0,0)"><g  style="pointer-events: none;"></g><g ></g><g  style="user-select: none;"><!--z-index:1--><!--z-index:2--><!--z-index:3--><!--z-index:4--><!--z-index:5--><!--z-index:6--><!--z-index:7--><!--z-index:8--><g   id="j_103"  transform="translate(20,1014)"><g id="v-1061"><text  id="v-1062" font-size="24px" xml:space="preserve" y="0.8em" font-weight="normal" text-anchor="start" fill="#cccccc" pointer-events="none" display="block" font-family="Tahoma, Verdana, Helvetica, Arial"><tspan dy="0"  display="none">Thursday, 6 August 2026 at 15:20 Central European Summer Time</tspan></text></g></g><!--z-index:9--><g   id="j_102"  transform="translate(20,968)"><g id="v-1059"><text  id="v-1060" font-size="36px" xml:space="preserve" y="0.8em" font-weight="normal" text-anchor="start" fill="#cccccc" pointer-events="none" display="block" font-family="Tahoma, Verdana, Helvetica, Arial"><tspan dy="0"  display="none">Component View: Local Kubernetes Platform - Django Service</tspan></text></g></g><!--z-index:10--><g   id="j_106"  transform="translate(200,160)" style="; opacity: 1;"><g id="v-1075"><rect  id="v-1076" width="1440" height="658" rx="20" ry="20" stroke-width="3" pointer-events="none" stroke="#023d8a" fill="#111111" opacity="1" stroke-dasharray=""></rect><text  id="v-1077" font-size="33.599999999999994px" xml:space="preserve" y="619" font-weight="bold" text-anchor="start" pointer-events="visible" font-family="Tahoma, Verdana, Helvetica, Arial" fill="#dfdada" transform="matrix(1,0,0,1,15,0)"><tspan dy="0" >Local Kubernetes Platform</tspan></text><text  id="v-1078" font-size="16.799999999999997px" xml:space="preserve" y="643" font-weight="normal" text-anchor="start" pointer-events="visible" font-family="Tahoma, Verdana, Helvetica, Arial" fill="#dfdada" transform="matrix(1,0,0,1,15,0)"><tspan dy="0" >[Software System]</tspan></text><image  id="v-1079" pointer-events="visible"></image></g></g><!--z-index:11--><g   id="j_105"  transform="translate(250,210)" style="; opacity: 1;"><g id="v-1070"><rect  id="v-1071" width="1340" height="479" rx="20" ry="20" stroke-width="2" pointer-events="none" stroke="#0b3c86" fill="#111111" opacity="1" stroke-dasharray=""></rect><text  id="v-1072" font-size="33.599999999999994px" xml:space="preserve" y="440" font-weight="bold" text-anchor="start" pointer-events="visible" font-family="Tahoma, Verdana, Helvetica, Arial" fill="#dfdada" transform="matrix(1,0,0,1,15,0)"><tspan dy="0" >Django Service</tspan></text><text  id="v-1073" font-size="16.799999999999997px" xml:space="preserve" y="464" font-weight="normal" text-anchor="start" pointer-events="visible" font-family="Tahoma, Verdana, Helvetica, Arial" fill="#dfdada" transform="matrix(1,0,0,1,15,0)"><tspan dy="0" >[Container]</tspan></text><image  id="v-1074" pointer-events="visible"></image></g></g><!--z-index:12--><g   id="j_104"  transform="translate(300,260)" style=""><g  id="v-1063" style="opacity: 1;"><rect  id="v-1064" rx="1" ry="1" stroke-width="2" pointer-events="visiblePainted" fill="#111111" stroke="#cccccc" stroke-dasharray="" width="450" height="300" style="fill: rgb(17, 17, 17); stroke: rgb(204, 204, 204);"></rect><text  id="v-1065" font-size="28px" xml:space="preserve" y="107.5" font-weight="bold" text-anchor="middle" pointer-events="visible" font-family="Tahoma, Verdana, Helvetica, Arial" fill="#dfdada" dominant-baseline="hanging" transform="matrix(1,0,0,1,225,0)" style="fill: rgb(223, 218, 218);"><tspan dy="0" >Users App</tspan></text><text  id="v-1066" font-size="14px" xml:space="preserve" y="143.5" text-anchor="middle" font-family="Tahoma, Verdana, Helvetica, Arial" fill="#dfdada" dominant-baseline="hanging" transform="matrix(1,0,0,1,225,0)" style="display: block; fill: rgb(223, 218, 218);"><tspan dy="0" >[Component: Django App]</tspan></text><text  id="v-1067" font-size="20px" xml:space="preserve" y="172.5" text-anchor="middle" font-family="Tahoma, Verdana, Helvetica, Arial" fill="#dfdada" dominant-baseline="hanging" transform="matrix(1,0,0,1,225,0)" style="display: block; fill: rgb(223, 218, 218);"><tspan dy="0" >Manages user accounts.</tspan></text><g  id="v-1068" color="#dfdada" transform="matrix(1,0,0,1,222.5,268)" display="none" style="fill: rgb(223, 218, 218);"><g ></g><g ></g><g ></g><g ></g></g><image  id="v-1069"></image></g></g><!--z-index:13--><g   id="j_107"  transform="translate(1090,260)" style=""><g  id="v-1083" style="opacity: 1;"><rect  id="v-1084" rx="1" ry="1" stroke-width="2" pointer-events="visiblePainted" fill="#111111" stroke="#cccccc" stroke-dasharray="" width="450" height="300" style="fill: rgb(17, 17, 17); stroke: rgb(204, 204, 204);"></rect><text  id="v-1085" font-size="28px" xml:space="preserve" y="107.5" font-weight="bold" text-anchor="middle" pointer-events="visible" font-family="Tahoma, Verdana, Helvetica, Arial" fill="#dfdada" dominant-baseline="hanging" transform="matrix(1,0,0,1,225,0)" style="fill: rgb(223, 218, 218);"><tspan dy="0" >Posts App</tspan></text><text  id="v-1086" font-size="14px" xml:space="preserve" y="143.5" text-anchor="middle" font-family="Tahoma, Verdana, Helvetica, Arial" fill="#dfdada" dominant-baseline="hanging" transform="matrix(1,0,0,1,225,0)" style="display: block; fill: rgb(223, 218, 218);"><tspan dy="0" >[Component: Django App]</tspan></text><text  id="v-1087" font-size="20px" xml:space="preserve" y="172.5" text-anchor="middle" font-family="Tahoma, Verdana, Helvetica, Arial" fill="#dfdada" dominant-baseline="hanging" transform="matrix(1,0,0,1,225,0)" style="display: block; fill: rgb(223, 218, 218);"><tspan dy="0" >Manages posts and related content.</tspan></text><g  id="v-1088" color="#dfdada" transform="matrix(1,0,0,1,222.5,268)" display="none" style="fill: rgb(223, 218, 218);"><g ></g><g ></g><g ></g><g ></g></g><image  id="v-1089"></image></g></g><!--z-index:14--><g   id="j_108"  style="opacity: 1;"><path fill="none" cursor="pointer" stroke="transparent" stroke-linecap="round" joint-selector="wrapper" id="v-1104" stroke-width="10" stroke-linejoin="round" d="M 750 410 L 910 410 C 916.6666666666665 410 919.9999999999999 406.66666666666663 920 400 L 920 359 C 919.9999999999999 352.4 919.9999999999999 345.73333333333335 920 339 L 920 250 C 919.9999999999999 243.33333333333331 923.3333333333333 240 930 240 L 1305 240 C 1311.6666666666665 240 1315 243.33333333333331 1315 250 L 1315 260"></path><path fill="none" pointer-events="none" joint-selector="line" id="v-1103" stroke="#eeea1e" stroke-width="2" stroke-linejoin="round" stroke-dasharray="" d="M 750 410 L 910 410 C 916.6666666666665 410 919.9999999999999 406.66666666666663 920 400 L 920 359 C 919.9999999999999 352.4 919.9999999999999 345.73333333333335 920 339 L 920 250 C 919.9999999999999 243.33333333333331 923.3333333333333 240 930 240 L 1305 240 C 1311.6666666666665 240 1315 243.33333333333331 1315 250 L 1315 260" marker-end="url(#v-2-381586655)"></path><g id="v-1093" ><g id="v-1094"  label-idx="0" cursor="move" transform="matrix(1,0,0,1,959.3847045898438,229.39999389648438)" style="cursor: default;"><rect joint-selector="rect" id="v-1098" fill="#111111" rx="3" ry="3" x="-98.58726501464844" y="-21.173810958862305" width="197.70211791992188" height="39.35238265991211" pointer-events="none"  style="display: block;"></rect><text joint-selector="text" id="v-1097" font-size="16px" xml:space="preserve" fill="#eeea1e" text-anchor="middle" pointer-events="none" font-family="Tahoma, Verdana, Helvetica, Arial" font-weight="normal"  style="display: block;"><tspan dy="-0.3em" >Provides user references for</tspan><tspan dy="1.2em" x="0" >posts</tspan></text></g><g id="v-1095"  label-idx="1" cursor="move" transform="matrix(1,0,0,1,959.3847045898438,262.6000061035156)" style="cursor: default;"><rect joint-selector="rect" id="v-1100" fill="#111111" rx="3" ry="3" x="-35.355228424072266" y="-7.975714683532715" width="71.46104431152344" height="13.85476303100586"  pointer-events="none" style="display: block;"></rect><text joint-selector="text" id="v-1099" font-size="11.2px" xml:space="preserve" fill="#eeea1e" text-anchor="middle" pointer-events="none" font-family="Tahoma, Verdana, Helvetica, Arial" font-weight="normal"  style="display: block;"><tspan dy="0.3em" >[Django ORM]</tspan></text></g><g id="v-1096"  label-idx="2" cursor="move" transform="matrix(1,0,0,1,949.3847045898438,268.20001220703125)" style="cursor: default;"><rect joint-selector="rect" id="v-1102" fill="#ffffff" rx="3" ry="3" x="-2.2737367544323206e-13" y="-5.684341886080802e-14" width="0" height="0"  display="none"></rect><text joint-selector="text" id="v-1101" fill="#000000" font-size="14" text-anchor="middle" text-vertical-anchor="middle" pointer-events="none"></text></g></g></g><!--z-index:15--><g   id="j_109"  style="opacity: 1;"><path fill="none" cursor="pointer" stroke="transparent" stroke-linecap="round" joint-selector="wrapper" id="v-1119" stroke-width="10" stroke-linejoin="round" d="M 1090 410 L 930 410 C 923.3333333333333 410 919.9999999999999 413.3333333333333 920 420 L 920 466 C 919.9999999999999 472.46666666666664 919.9999999999999 479.1333333333333 920 486 L 920 570 C 919.9999999999999 576.6666666666666 916.6666666666665 580 910 580 L 535 580 C 528.3333333333333 580 525 576.6666666666666 525 570 L 525 560"></path><path fill="none" pointer-events="none" joint-selector="line" id="v-1118" stroke="#eeea1e" stroke-width="2" stroke-linejoin="round" stroke-dasharray="" d="M 1090 410 L 930 410 C 923.3333333333333 410 919.9999999999999 413.3333333333333 920 420 L 920 466 C 919.9999999999999 472.46666666666664 919.9999999999999 479.1333333333333 920 486 L 920 570 C 919.9999999999999 576.6666666666666 916.6666666666665 580 910 580 L 535 580 C 528.3333333333333 580 525 576.6666666666666 525 570 L 525 560" marker-end="url(#v-2-381586655)"></path><g id="v-1108" ><g id="v-1109"  label-idx="0" cursor="move" transform="matrix(1,0,0,1,880.6152954101562,569.4000244140625)" style="cursor: default;"><rect joint-selector="rect" id="v-1113" fill="#111111" rx="3" ry="3" x="-80.83584594726562" y="-11.573810577392578" width="161.67169189453125" height="20.152381896972656" pointer-events="none"  style="display: block;"></rect><text joint-selector="text" id="v-1112" font-size="16px" xml:space="preserve" fill="#eeea1e" text-anchor="middle" pointer-events="none" font-family="Tahoma, Verdana, Helvetica, Arial" font-weight="normal"  style="display: block;"><tspan dy="0.3em" >Checks post ownership</tspan></text></g><g id="v-1110"  label-idx="1" cursor="move" transform="matrix(1,0,0,1,880.6152954101562,593)" style="cursor: default;"><rect joint-selector="rect" id="v-1115" fill="#111111" rx="3" ry="3" x="-35.355228424072266" y="-7.975714683532715" width="71.46104431152344" height="13.85476303100586"  pointer-events="none" style="display: block;"></rect><text joint-selector="text" id="v-1114" font-size="11.2px" xml:space="preserve" fill="#eeea1e" text-anchor="middle" pointer-events="none" font-family="Tahoma, Verdana, Helvetica, Arial" font-weight="normal"  style="display: block;"><tspan dy="0.3em" >[Django ORM]</tspan></text></g><g id="v-1111"  label-idx="2" cursor="move" transform="matrix(1,0,0,1,870.6152954101562,598.5999755859375)" style="cursor: default;"><rect joint-selector="rect" id="v-1117" fill="#ffffff" rx="3" ry="3" x="0" y="0" width="0" height="0"  display="none"></rect><text joint-selector="text" id="v-1116" fill="#000000" font-size="14" text-anchor="middle" text-vertical-anchor="middle" pointer-events="none"></text></g></g></g><!--z-index:16--><!--z-index:17--><!--z-index:18--><!--z-index:19--><!--z-index:20--><!--z-index:21--><!--z-index:22--><!--z-index:23--><!--z-index:24--><!--z-index:25--><!--z-index:26--><!--z-index:27--><!--z-index:28--><!--z-index:29--><!--z-index:30--></g><g  style="user-select: none;"></g><g ></g><g  display="none"></g></g></svg>