<svg xmlns="http://www.w3.org/2000/svg" xmlns:xlink="http://www.w3.org/1999/xlink" version="1.1" width="2919.9999484062196" height="924.9999711036684" style="width: 2919.9999484062196px; height: 924.9999711036684px; background: #111111" viewBox="150.00000276565552 109.99999914169311 2919.9999484062196 924.9999711036684"><style id="v-3" type="text/css">        .joint-element .scalable * {            vector-effect: non-scaling-stroke;        }    </style><defs joint-selector="defs"><marker id="v-2-480243263" orient="auto" overflow="visible" markerUnits="userSpaceOnUse"><path id="v-134" stroke="#707070" fill="#707070" transform="rotate(180)" d="M 20 -10 0 0 20 10 Z"></path></marker></defs><g joint-selector="layers"  transform="matrix(1,0,0,1,0,0)"><g  style="pointer-events: none;"></g><g ></g><g  style="user-select: none;"><!--z-index:1--><!--z-index:2--><!--z-index:3--><!--z-index:4--><!--z-index:5--><!--z-index:6--><!--z-index:7--><!--z-index:8--><!--z-index:9--><!--z-index:10--><!--z-index:11--><!--z-index:12--><!--z-index:13--><!--z-index:14--><!--z-index:15--><g   id="j_8"  transform="translate(20,1181)"><g id="v-40"><text  id="v-41" font-size="24px" xml:space="preserve" y="0.8em" font-weight="normal" text-anchor="start" fill="#cccccc" pointer-events="none" display="block" font-family="Tahoma, Verdana, Helvetica, Arial"><tspan dy="0"  display="none">Thursday, 6 August 2026 at 14:52 Central European Summer Time</tspan></text></g></g><!--z-index:16--><g   id="j_7"  transform="translate(20,1135)"><g id="v-38"><text  id="v-39" font-size="36px" xml:space="preserve" y="0.8em" font-weight="normal" text-anchor="start" fill="#cccccc" pointer-events="none" display="block" font-family="Tahoma, Verdana, Helvetica, Arial"><tspan dy="0"  display="none">System Landscape View</tspan></text></g></g><!--z-index:17--><g   id="j_9"  transform="translate(200,335)" style=""><g  id="v-45" style="opacity: 1;"><rect  id="v-46" rx="20" ry="20" stroke-width="2" pointer-events="visiblePainted" fill="#4e5e78" stroke="#1b2936" stroke-dasharray="8,8" width="450" height="300" style="fill: rgb(78, 94, 120); stroke: rgb(27, 41, 54);"></rect><text  id="v-47" font-size="28px" xml:space="preserve" y="106.5" font-weight="bold" text-anchor="middle" pointer-events="visible" font-family="Tahoma, Verdana, Helvetica, Arial" fill="#cccccc" dominant-baseline="hanging" transform="matrix(1,0,0,1,225,0)" style="fill: rgb(204, 204, 204);"><tspan dy="0" >Developer</tspan></text><text  id="v-48" font-size="14px" xml:space="preserve" display="none" y="106.5" text-anchor="middle" font-family="Tahoma, Verdana, Helvetica, Arial" fill="#cccccc" dominant-baseline="hanging" transform="matrix(1,0,0,1,225,0)" style="display: block; fill: rgb(204, 204, 204);"><tspan dy="0"  style="fill-opacity: 0; stroke-opacity: 0;">-</tspan></text><text  id="v-49" font-size="20px" xml:space="preserve" y="149.5" text-anchor="middle" font-family="Tahoma, Verdana, Helvetica, Arial" fill="#cccccc" dominant-baseline="hanging" transform="matrix(1,0,0,1,225,0)" style="display: block; fill: rgb(204, 204, 204);"><tspan dy="0" >Engineer running and deploying the</tspan><tspan dy="1.2em" x="0" >applications locally.</tspan></text><g  id="v-50" color="#cccccc" transform="matrix(1,0,0,1,222.5,268)" display="none" style="fill: rgb(204, 204, 204);"><g ></g><g ></g><g ></g><g ></g></g><image  id="v-51"></image></g></g><!--z-index:18--><g   id="j_10"  transform="translate(1780,335)" style=""><g  id="v-58" style="opacity: 1;"><rect  id="v-59" rx="1" ry="1" stroke-width="2" pointer-events="visiblePainted" fill="#111111" stroke="#cccccc" stroke-dasharray="" width="450" height="300" style="fill: rgb(17, 17, 17); stroke: rgb(204, 204, 204);"></rect><text  id="v-60" font-size="33.599999999999994px" xml:space="preserve" y="72.5" font-weight="bold" text-anchor="middle" pointer-events="visible" font-family="Tahoma, Verdana, Helvetica, Arial" fill="#cccccc" dominant-baseline="hanging" transform="matrix(1,0,0,1,225,0)" style="fill: rgb(204, 204, 204);"><tspan dy="0" >Local Kubernetes Platform</tspan></text><text  id="v-61" font-size="16.799999999999997px" xml:space="preserve" y="114.1" text-anchor="middle" font-family="Tahoma, Verdana, Helvetica, Arial" fill="#cccccc" dominant-baseline="hanging" transform="matrix(1,0,0,1,225,0)" style="display: block; fill: rgb(204, 204, 204);"><tspan dy="0" >[Software System]</tspan></text><text  id="v-62" font-size="24px" xml:space="preserve" y="145.89999999999998" text-anchor="middle" font-family="Tahoma, Verdana, Helvetica, Arial" fill="#cccccc" dominant-baseline="hanging" transform="matrix(1,0,0,1,225,0)" style="display: block; fill: rgb(204, 204, 204);"><tspan dy="0" >Runs the FastAPI and Django</tspan><tspan dy="1.2em" x="0" >applications on a local k3d</tspan><tspan dy="1.2em" x="0" >Kubernetes cluster.</tspan></text><g  id="v-63" color="#cccccc" transform="matrix(1,0,0,1,185,268)" display="none" style="fill: rgb(204, 204, 204);"><g  transform="translate(5 0)"><svg xmlns="http://www.w3.org/2000/svg" width="20" height="20" fill="currentColor" viewBox="0 0 16 16"><path fill-rule="evenodd" d="M6.5 12a5.5 5.5 0 1 0 0-11 5.5 5.5 0 0 0 0 11zM13 6.5a6.5 6.5 0 1 1-13 0 6.5 6.5 0 0 1 13 0z"></path><path d="M10.344 11.742c.03.04.062.078.098.115l3.85 3.85a1 1 0 0 0 1.415-1.414l-3.85-3.85a1.007 1.007 0 0 0-.115-.1 6.538 6.538 0 0 1-1.398 1.4z"></path><path fill-rule="evenodd" d="M6.5 3a.5.5 0 0 1 .5.5V6h2.5a.5.5 0 0 1 0 1H7v2.5a.5.5 0 0 1-1 0V7H3.5a.5.5 0 0 1 0-1H6V3.5a.5.5 0 0 1 .5-.5z"></path></svg></g><g  transform="translate(30 0)"><svg xmlns="http://www.w3.org/2000/svg" width="20" height="20" fill="currentColor" viewBox="0 0 16 16"><path d="M1 2.828c.885-.37 2.154-.769 3.388-.893 1.33-.134 2.458.063 3.112.752v9.746c-.935-.53-2.12-.603-3.213-.493-1.18.12-2.37.461-3.287.811V2.828zm7.5-.141c.654-.689 1.782-.886 3.112-.752 1.234.124 2.503.523 3.388.893v9.923c-.918-.35-2.107-.692-3.287-.81-1.094-.111-2.278-.039-3.213.492V2.687zM8 1.783C7.015.936 5.587.81 4.287.94c-1.514.153-3.042.672-3.994 1.105A.5.5 0 0 0 0 2.5v11a.5.5 0 0 0 .707.455c.882-.4 2.303-.881 3.68-1.02 1.409-.142 2.59.087 3.223.877a.5.5 0 0 0 .78 0c.633-.79 1.814-1.019 3.222-.877 1.378.139 2.8.62 3.681 1.02A.5.5 0 0 0 16 13.5v-11a.5.5 0 0 0-.293-.455c-.952-.433-2.48-.952-3.994-1.105C10.413.809 8.985.936 8 1.783z"></path></svg></g><g  transform="translate(55 0)"><svg xmlns="http://www.w3.org/2000/svg" width="20" height="20" fill="currentColor" viewBox="0 0 16 16"><path d="M5 10.5a.5.5 0 0 1 .5-.5h2a.5.5 0 0 1 0 1h-2a.5.5 0 0 1-.5-.5zm0-2a.5.5 0 0 1 .5-.5h5a.5.5 0 0 1 0 1h-5a.5.5 0 0 1-.5-.5zm0-2a.5.5 0 0 1 .5-.5h5a.5.5 0 0 1 0 1h-5a.5.5 0 0 1-.5-.5zm0-2a.5.5 0 0 1 .5-.5h5a.5.5 0 0 1 0 1h-5a.5.5 0 0 1-.5-.5z"></path><path d="M3 0h10a2 2 0 0 1 2 2v12a2 2 0 0 1-2 2H3a2 2 0 0 1-2-2v-1h1v1a1 1 0 0 0 1 1h10a1 1 0 0 0 1-1V2a1 1 0 0 0-1-1H3a1 1 0 0 0-1 1v1H1V2a2 2 0 0 1 2-2z"></path><path d="M1 5v-.5a.5.5 0 0 1 1 0V5h.5a.5.5 0 0 1 0 1h-2a.5.5 0 0 1 0-1H1zm0 3v-.5a.5.5 0 0 1 1 0V8h.5a.5.5 0 0 1 0 1h-2a.5.5 0 0 1 0-1H1zm0 3v-.5a.5.5 0 0 1 1 0v.5h.5a.5.5 0 0 1 0 1h-2a.5.5 0 0 1 0-1H1z"></path></svg></g><g ></g></g><image  id="v-64"></image></g></g><!--z-index:19--><g   id="j_11"  transform="translate(200,685)" style=""><g  id="v-68" style="opacity: 1;"><rect  id="v-69" rx="20" ry="20" stroke-width="2" pointer-events="visiblePainted" fill="#4e5e78" stroke="#1b2936" stroke-dasharray="8,8" width="450" height="300" style="fill: rgb(78, 94, 120); stroke: rgb(27, 41, 54);"></rect><text  id="v-70" font-size="28px" xml:space="preserve" y="118.5" font-weight="bold" text-anchor="middle" pointer-events="visible" font-family="Tahoma, Verdana, Helvetica, Arial" fill="#cccccc" dominant-baseline="hanging" transform="matrix(1,0,0,1,225,0)" style="fill: rgb(204, 204, 204);"><tspan dy="0" >Vault</tspan></text><text  id="v-71" font-size="14px" xml:space="preserve" display="none" y="118.5" text-anchor="middle" font-family="Tahoma, Verdana, Helvetica, Arial" fill="#cccccc" dominant-baseline="hanging" transform="matrix(1,0,0,1,225,0)" style="display: block; fill: rgb(204, 204, 204);"><tspan dy="0"  style="fill-opacity: 0; stroke-opacity: 0;">-</tspan></text><text  id="v-72" font-size="20px" xml:space="preserve" y="161.5" text-anchor="middle" font-family="Tahoma, Verdana, Helvetica, Arial" fill="#cccccc" dominant-baseline="hanging" transform="matrix(1,0,0,1,225,0)" style="display: block; fill: rgb(204, 204, 204);"><tspan dy="0" >Stores and injects application secrets.</tspan></text><g  id="v-73" color="#cccccc" transform="matrix(1,0,0,1,222.5,268)" display="none" style="fill: rgb(204, 204, 204);"><g ></g><g ></g><g ></g><g ></g></g><image  id="v-74"></image></g></g><!--z-index:20--><g   id="j_12"  transform="translate(990,619)" style=""><g  id="v-78" style="opacity: 1;"><rect  id="v-79" rx="20" ry="20" stroke-width="2" pointer-events="visiblePainted" fill="#4e5e78" stroke="#1b2936" stroke-dasharray="8,8" width="450" height="300" style="fill: rgb(78, 94, 120); stroke: rgb(27, 41, 54);"></rect><text  id="v-80" font-size="28px" xml:space="preserve" y="106.5" font-weight="bold" text-anchor="middle" pointer-events="visible" font-family="Tahoma, Verdana, Helvetica, Arial" fill="#cccccc" dominant-baseline="hanging" transform="matrix(1,0,0,1,225,0)" style="fill: rgb(204, 204, 204);"><tspan dy="0" >ArgoCD</tspan></text><text  id="v-81" font-size="14px" xml:space="preserve" display="none" y="106.5" text-anchor="middle" font-family="Tahoma, Verdana, Helvetica, Arial" fill="#cccccc" dominant-baseline="hanging" transform="matrix(1,0,0,1,225,0)" style="display: block; fill: rgb(204, 204, 204);"><tspan dy="0"  style="fill-opacity: 0; stroke-opacity: 0;">-</tspan></text><text  id="v-82" font-size="20px" xml:space="preserve" y="149.5" text-anchor="middle" font-family="Tahoma, Verdana, Helvetica, Arial" fill="#cccccc" dominant-baseline="hanging" transform="matrix(1,0,0,1,225,0)" style="display: block; fill: rgb(204, 204, 204);"><tspan dy="0" >Continuously deploys the platform from Git</tspan><tspan dy="1.2em" x="0" >using GitOps.</tspan></text><g  id="v-83" color="#cccccc" transform="matrix(1,0,0,1,222.5,268)" display="none" style="fill: rgb(204, 204, 204);"><g ></g><g ></g><g ></g><g ></g></g><image  id="v-84"></image></g></g><!--z-index:21--><g   id="j_13"  transform="translate(990,269)" style=""><g  id="v-88" style="opacity: 1;"><rect  id="v-89" rx="20" ry="20" stroke-width="2" pointer-events="visiblePainted" fill="#4e5e78" stroke="#1b2936" stroke-dasharray="8,8" width="450" height="300" style="fill: rgb(78, 94, 120); stroke: rgb(27, 41, 54);"></rect><text  id="v-90" font-size="28px" xml:space="preserve" y="106.5" font-weight="bold" text-anchor="middle" pointer-events="visible" font-family="Tahoma, Verdana, Helvetica, Arial" fill="#cccccc" dominant-baseline="hanging" transform="matrix(1,0,0,1,225,0)" style="fill: rgb(204, 204, 204);"><tspan dy="0" >Monitoring</tspan></text><text  id="v-91" font-size="14px" xml:space="preserve" display="none" y="106.5" text-anchor="middle" font-family="Tahoma, Verdana, Helvetica, Arial" fill="#cccccc" dominant-baseline="hanging" transform="matrix(1,0,0,1,225,0)" style="display: block; fill: rgb(204, 204, 204);"><tspan dy="0"  style="fill-opacity: 0; stroke-opacity: 0;">-</tspan></text><text  id="v-92" font-size="20px" xml:space="preserve" y="149.5" text-anchor="middle" font-family="Tahoma, Verdana, Helvetica, Arial" fill="#cccccc" dominant-baseline="hanging" transform="matrix(1,0,0,1,225,0)" style="display: block; fill: rgb(204, 204, 204);"><tspan dy="0" >Collects and visualises metrics from the</tspan><tspan dy="1.2em" x="0" >platform using Prometheus and Grafana.</tspan></text><g  id="v-93" color="#cccccc" transform="matrix(1,0,0,1,222.5,268)" display="none" style="fill: rgb(204, 204, 204);"><g ></g><g ></g><g ></g><g ></g></g><image  id="v-94"></image></g></g><!--z-index:22--><g   id="j_14"  transform="translate(2570,160)" style=""><g  id="v-98" style="opacity: 1;"><rect  id="v-99" rx="20" ry="20" stroke-width="2" pointer-events="visiblePainted" fill="#4e5e78" stroke="#1b2936" stroke-dasharray="8,8" width="450" height="300" style="fill: rgb(78, 94, 120); stroke: rgb(27, 41, 54);"></rect><text  id="v-100" font-size="28px" xml:space="preserve" y="94.5" font-weight="bold" text-anchor="middle" pointer-events="visible" font-family="Tahoma, Verdana, Helvetica, Arial" fill="#cccccc" dominant-baseline="hanging" transform="matrix(1,0,0,1,225,0)" style="fill: rgb(204, 204, 204);"><tspan dy="0" >Logging</tspan></text><text  id="v-101" font-size="14px" xml:space="preserve" display="none" y="94.5" text-anchor="middle" font-family="Tahoma, Verdana, Helvetica, Arial" fill="#cccccc" dominant-baseline="hanging" transform="matrix(1,0,0,1,225,0)" style="display: block; fill: rgb(204, 204, 204);"><tspan dy="0"  style="fill-opacity: 0; stroke-opacity: 0;">-</tspan></text><text  id="v-102" font-size="20px" xml:space="preserve" y="137.5" text-anchor="middle" font-family="Tahoma, Verdana, Helvetica, Arial" fill="#cccccc" dominant-baseline="hanging" transform="matrix(1,0,0,1,225,0)" style="display: block; fill: rgb(204, 204, 204);"><tspan dy="0" >Collects and indexes application and</tspan><tspan dy="1.2em" x="0" >container logs using Elasticsearch and</tspan><tspan dy="1.2em" x="0" >Kibana.</tspan></text><g  id="v-103" color="#cccccc" transform="matrix(1,0,0,1,222.5,268)" display="none" style="fill: rgb(204, 204, 204);"><g ></g><g ></g><g ></g><g ></g></g><image  id="v-104"></image></g></g><!--z-index:23--><g   id="j_15"  transform="translate(2570,509)" style=""><g  id="v-108" style="opacity: 1;"><rect  id="v-109" rx="20" ry="20" stroke-width="2" pointer-events="visiblePainted" fill="#4e5e78" stroke="#1b2936" stroke-dasharray="8,8" width="450" height="300" style="fill: rgb(78, 94, 120); stroke: rgb(27, 41, 54);"></rect><text  id="v-110" font-size="28px" xml:space="preserve" y="118.5" font-weight="bold" text-anchor="middle" pointer-events="visible" font-family="Tahoma, Verdana, Helvetica, Arial" fill="#cccccc" dominant-baseline="hanging" transform="matrix(1,0,0,1,225,0)" style="fill: rgb(204, 204, 204);"><tspan dy="0" >SonarQube</tspan></text><text  id="v-111" font-size="14px" xml:space="preserve" display="none" y="118.5" text-anchor="middle" font-family="Tahoma, Verdana, Helvetica, Arial" fill="#cccccc" dominant-baseline="hanging" transform="matrix(1,0,0,1,225,0)" style="display: block; fill: rgb(204, 204, 204);"><tspan dy="0"  style="fill-opacity: 0; stroke-opacity: 0;">-</tspan></text><text  id="v-112" font-size="20px" xml:space="preserve" y="161.5" text-anchor="middle" font-family="Tahoma, Verdana, Helvetica, Arial" fill="#cccccc" dominant-baseline="hanging" transform="matrix(1,0,0,1,225,0)" style="display: block; fill: rgb(204, 204, 204);"><tspan dy="0" >Analyses code quality and test coverage.</tspan></text><g  id="v-113" color="#cccccc" transform="matrix(1,0,0,1,222.5,268)" display="none" style="fill: rgb(204, 204, 204);"><g ></g><g ></g><g ></g><g ></g></g><image  id="v-114"></image></g></g><!--z-index:24--><g   id="j_16"  style="opacity: 1;"><path fill="none" cursor="pointer" stroke="transparent" stroke-linecap="round" joint-selector="wrapper" id="v-132" stroke-width="10" stroke-linejoin="round" d="M 425 335 L 425 211 C 425 204.13333333333333 428.3333333333333 200.79999999999998 435 201 L 810 201 C 816.6666666666666 200.79999999999998 823.3333333333333 200.79999999999998 830 201 L 1600 201 C 1606.6666666666665 200.79999999999998 1613.3333333333333 200.79999999999998 1620 201 L 1995 201 C 2001.6666666666665 200.79999999999998 2004.9999999999998 204.13333333333333 2005 211 L 2005 335"></path><path fill="none" pointer-events="none" joint-selector="line" id="v-131" stroke="#707070" stroke-width="2" stroke-linejoin="round" stroke-dasharray="" d="M 425 335 L 425 211 C 425 204.13333333333333 428.3333333333333 200.79999999999998 435 201 L 810 201 C 816.6666666666666 200.79999999999998 823.3333333333333 200.79999999999998 830 201 L 1600 201 C 1606.6666666666665 200.79999999999998 1613.3333333333333 200.79999999999998 1620 201 L 1995 201 C 2001.6666666666665 200.79999999999998 2004.9999999999998 204.13333333333333 2005 211 L 2005 335" marker-end="url(#v-2-480243263)"></path><g id="v-121" ><g id="v-122"  label-idx="0" cursor="move" transform="matrix(1,0,0,1,1215,190.39999389648438)" style="cursor: default;"><rect joint-selector="rect" id="v-126" fill="#111111" rx="3" ry="3" x="-89.62053680419922" y="-11.866665840148926" width="180.78897094726562" height="21.428571701049805" pointer-events="none"  style="display: block;"></rect><text joint-selector="text" id="v-125" font-size="16px" xml:space="preserve" fill="#707070" text-anchor="middle" pointer-events="none" font-family="Tahoma, Verdana, Helvetica, Arial" font-weight="normal"  style="display: block;"><tspan dy="0.3em" >Develops and runs locally</tspan></text></g><g id="v-123"  label-idx="1" cursor="move" transform="matrix(1,0,0,1,1215,214)" style="cursor: default;"><rect joint-selector="rect" id="v-128" fill="#111111" rx="3" ry="3" x="-92.16889953613281" y="-8.544761657714844" width="184.78167724609375" height="14.285714149475098"  pointer-events="none" style="display: block;"></rect><text joint-selector="text" id="v-127" font-size="11.2px" xml:space="preserve" fill="#707070" text-anchor="middle" pointer-events="none" font-family="Tahoma, Verdana, Helvetica, Arial" font-weight="normal"  style="display: block;"><tspan dy="0.3em" >[Task, Tilt, kubectl, Kustomize, Helm]</tspan></text></g><g id="v-124"  label-idx="2" cursor="move" transform="matrix(1,0,0,1,1205,219.60000610351562)" style="cursor: default;"><rect joint-selector="rect" id="v-130" fill="#ffffff" rx="3" ry="3" x="0" y="0" width="0" height="0"  display="none"></rect><text joint-selector="text" id="v-129" fill="#000000" font-size="14" text-anchor="middle" text-vertical-anchor="middle" pointer-events="none"></text></g></g></g><!--z-index:25--><g   id="j_17"  style="opacity: 1;"><path fill="none" cursor="pointer" stroke="transparent" stroke-linecap="round" joint-selector="wrapper" id="v-149" stroke-width="10" stroke-linejoin="round" d="M 425 635 L 425 759 C 425 765.8666666666666 428.3333333333333 769.1999999999998 435 769 L 810 769 C 816.6666666666666 769.1999999999998 820 769.1999999999998 820 769 L 820 769 C 820 769 823.3333333333333 769 830 769 L 990 769"></path><path fill="none" pointer-events="none" joint-selector="line" id="v-148" stroke="#707070" stroke-width="2" stroke-linejoin="round" stroke-dasharray="" d="M 425 635 L 425 759 C 425 765.8666666666666 428.3333333333333 769.1999999999998 435 769 L 810 769 C 816.6666666666666 769.1999999999998 820 769.1999999999998 820 769 L 820 769 C 820 769 823.3333333333333 769 830 769 L 990 769" marker-end="url(#v-2-480243263)"></path><g id="v-138" ><g id="v-139"  label-idx="0" cursor="move" transform="matrix(1,0,0,1,694.41064453125,758.4000244140625)" style="cursor: default;"><rect joint-selector="rect" id="v-143" fill="#111111" rx="3" ry="3" x="-95.96353912353516" y="-11.866665840148926" width="190.1465606689453" height="21.428571701049805" pointer-events="none"  style="display: block;"></rect><text joint-selector="text" id="v-142" font-size="16px" xml:space="preserve" fill="#707070" text-anchor="middle" pointer-events="none" font-family="Tahoma, Verdana, Helvetica, Arial" font-weight="normal"  style="display: block;"><tspan dy="0.3em" >Configures deployments in</tspan></text></g><g id="v-140"  label-idx="1" cursor="move" transform="matrix(1,0,0,1,694.41064453125,782)" style="cursor: default;"><rect joint-selector="rect" id="v-145" fill="#111111" rx="3" ry="3" x="-20.53571319580078" y="-8.544761657714844" width="41.52973556518555" height="14.285714149475098"  pointer-events="none" style="display: block;"></rect><text joint-selector="text" id="v-144" font-size="11.2px" xml:space="preserve" fill="#707070" text-anchor="middle" pointer-events="none" font-family="Tahoma, Verdana, Helvetica, Arial" font-weight="normal"  style="display: block;"><tspan dy="0.3em" >[HTTPS]</tspan></text></g><g id="v-141"  label-idx="2" cursor="move" transform="matrix(1,0,0,1,632.3333740234375,787.5999755859375)" style="cursor: default;"><rect joint-selector="rect" id="v-147" fill="#ffffff" rx="3" ry="3" x="0" y="0" width="0" height="0"  display="none"></rect><text joint-selector="text" id="v-146" fill="#000000" font-size="14" text-anchor="middle" text-vertical-anchor="middle" pointer-events="none"></text></g></g></g><!--z-index:26--><g   id="j_18"  style="opacity: 1;"><path fill="none" cursor="pointer" stroke="transparent" stroke-linecap="round" joint-selector="wrapper" id="v-161" stroke-width="10" stroke-linejoin="round" d="M 2005 335 L 2005 320 C 2004.9999999999998 313.3333333333333 2008.333333333333 310 2015 310 L 2390 310 C 2396.6666666666665 310 2403.333333333333 310 2410 310 L 2570 310"></path><path fill="none" pointer-events="none" joint-selector="line" id="v-160" stroke="#707070" stroke-width="2" stroke-linejoin="round" stroke-dasharray="" d="M 2005 335 L 2005 320 C 2004.9999999999998 313.3333333333333 2008.333333333333 310 2015 310 L 2390 310 C 2396.6666666666665 310 2403.333333333333 310 2410 310 L 2570 310" marker-end="url(#v-2-480243263)"></path><g id="v-150" ><g id="v-151"  label-idx="0" cursor="move" transform="matrix(1,0,0,1,2290.0087890625,299.3999938964844)" style="cursor: default;"><rect joint-selector="rect" id="v-155" fill="#111111" rx="3" ry="3" x="-47.32142639160156" y="-11.866665840148926" width="95.47671508789062" height="21.428571701049805" pointer-events="none"  style="display: block;"></rect><text joint-selector="text" id="v-154" font-size="16px" xml:space="preserve" fill="#707070" text-anchor="middle" pointer-events="none" font-family="Tahoma, Verdana, Helvetica, Arial" font-weight="normal"  style="display: block;"><tspan dy="0.3em" >Sends logs to</tspan></text></g><g id="v-152"  label-idx="1" cursor="move" transform="matrix(1,0,0,1,2290.0087890625,323)" style="cursor: default;"><rect joint-selector="rect" id="v-157" fill="#111111" rx="3" ry="3" x="-23.56770896911621" y="-8.544761657714844" width="47.58940124511719" height="14.285714149475098"  pointer-events="none" style="display: block;"></rect><text joint-selector="text" id="v-156" font-size="11.2px" xml:space="preserve" fill="#707070" text-anchor="middle" pointer-events="none" font-family="Tahoma, Verdana, Helvetica, Arial" font-weight="normal"  style="display: block;"><tspan dy="0.3em" >[Filebeat]</tspan></text></g><g id="v-153"  label-idx="2" cursor="move" transform="matrix(1,0,0,1,2266.884765625,328.6000061035156)" style="cursor: default;"><rect joint-selector="rect" id="v-159" fill="#ffffff" rx="3" ry="3" x="0" y="0" width="0" height="0"  display="none"></rect><text joint-selector="text" id="v-158" fill="#000000" font-size="14" text-anchor="middle" text-vertical-anchor="middle" pointer-events="none"></text></g></g></g><!--z-index:27--><g   id="j_19"  style="opacity: 1;"><path fill="none" cursor="pointer" stroke="transparent" stroke-linecap="round" joint-selector="wrapper" id="v-176" stroke-width="10" stroke-linejoin="round" d="M 1440 419 L 1600 419 C 1606.6666666666665 419 1610 419 1610 419 L 1610 419 C 1610 419.19999999999993 1610 422.5333333333333 1610 429 L 1610 475 C 1610 481.66666666666663 1613.3333333333333 485 1620 485 L 1780 485"></path><path fill="none" pointer-events="none" joint-selector="line" id="v-175" stroke="#707070" stroke-width="2" stroke-linejoin="round" stroke-dasharray="" d="M 1440 419 L 1600 419 C 1606.6666666666665 419 1610 419 1610 419 L 1610 419 C 1610 419.19999999999993 1610 422.5333333333333 1610 429 L 1610 475 C 1610 481.66666666666663 1613.3333333333333 485 1620 485 L 1780 485" marker-end="url(#v-2-480243263)"></path><g id="v-165" ><g id="v-166"  label-idx="0" cursor="move" transform="matrix(1,0,0,1,1610,438.14324951171875)" style="cursor: default;"><rect joint-selector="rect" id="v-170" fill="#111111" rx="3" ry="3" x="-74.31175231933594" y="-11.866665840148926" width="149.45729064941406" height="21.428571701049805" pointer-events="none"  style="display: block;"></rect><text joint-selector="text" id="v-169" font-size="16px" xml:space="preserve" fill="#707070" text-anchor="middle" pointer-events="none" font-family="Tahoma, Verdana, Helvetica, Arial" font-weight="normal"  style="display: block;"><tspan dy="0.3em" >Scrapes metrics from</tspan></text></g><g id="v-167"  label-idx="1" cursor="move" transform="matrix(1,0,0,1,1610,461.7432556152344)" style="cursor: default;"><rect joint-selector="rect" id="v-172" fill="#111111" rx="3" ry="3" x="-17.41071319580078" y="-8.544761657714844" width="35.29521179199219" height="14.285714149475098"  pointer-events="none" style="display: block;"></rect><text joint-selector="text" id="v-171" font-size="11.2px" xml:space="preserve" fill="#707070" text-anchor="middle" pointer-events="none" font-family="Tahoma, Verdana, Helvetica, Arial" font-weight="normal"  style="display: block;"><tspan dy="0.3em" >[HTTP]</tspan></text></g><g id="v-168"  label-idx="2" cursor="move" transform="matrix(1,0,0,1,1600,468.7153015136719)" style="cursor: default;"><rect joint-selector="rect" id="v-174" fill="#ffffff" rx="3" ry="3" x="-4.547473508864641e-13" y="0" width="0" height="0"  display="none"></rect><text joint-selector="text" id="v-173" fill="#000000" font-size="14" text-anchor="middle" text-vertical-anchor="middle" pointer-events="none"></text></g></g></g><!--z-index:28--><g   id="j_20"  style="opacity: 1;"><path fill="none" cursor="pointer" stroke="transparent" stroke-linecap="round" joint-selector="wrapper" id="v-191" stroke-width="10" stroke-linejoin="round" d="M 2005 635 L 2005 650 C 2004.9999999999998 656.6666666666666 2008.333333333333 660 2015 660 L 2390 660 C 2396.6666666666665 660 2400 660 2400 660 L 2400 660 C 2400 659.3333333333333 2403.333333333333 659 2410 659 L 2570 659"></path><path fill="none" pointer-events="none" joint-selector="line" id="v-190" stroke="#707070" stroke-width="2" stroke-linejoin="round" stroke-dasharray="" d="M 2005 635 L 2005 650 C 2004.9999999999998 656.6666666666666 2008.333333333333 660 2015 660 L 2390 660 C 2396.6666666666665 660 2400 660 2400 660 L 2400 660 C 2400 659.3333333333333 2403.333333333333 659 2410 659 L 2570 659" marker-end="url(#v-2-480243263)"></path><g id="v-180" ><g id="v-181"  label-idx="0" cursor="move" transform="matrix(1,0,0,1,2290.121337890625,649.4000244140625)" style="cursor: default;"><rect joint-selector="rect" id="v-185" fill="#111111" rx="3" ry="3" x="-78.125" y="-21.4666690826416" width="157.61907958984375" height="40.62857437133789" pointer-events="none"  style="display: block;"></rect><text joint-selector="text" id="v-184" font-size="16px" xml:space="preserve" fill="#707070" text-anchor="middle" pointer-events="none" font-family="Tahoma, Verdana, Helvetica, Arial" font-weight="normal"  style="display: block;"><tspan dy="-0.3em" >Sends source code for</tspan><tspan dy="1.2em" x="0" >analysis to</tspan></text></g><g id="v-182"  label-idx="1" cursor="move" transform="matrix(1,0,0,1,2290.121337890625,682.5999755859375)" style="cursor: default;"><rect joint-selector="rect" id="v-187" fill="#111111" rx="3" ry="3" x="-20.53571319580078" y="-8.544761657714844" width="41.52973556518555" height="14.285714149475098"  pointer-events="none" style="display: block;"></rect><text joint-selector="text" id="v-186" font-size="11.2px" xml:space="preserve" fill="#707070" text-anchor="middle" pointer-events="none" font-family="Tahoma, Verdana, Helvetica, Arial" font-weight="normal"  style="display: block;"><tspan dy="0.3em" >[HTTPS]</tspan></text></g><g id="v-183"  label-idx="2" cursor="move" transform="matrix(1,0,0,1,2266.9921875,688.2000122070312)" style="cursor: default;"><rect joint-selector="rect" id="v-189" fill="#ffffff" rx="3" ry="3" x="0" y="0" width="0" height="0"  display="none"></rect><text joint-selector="text" id="v-188" fill="#000000" font-size="14" text-anchor="middle" text-vertical-anchor="middle" pointer-events="none"></text></g></g></g><!--z-index:29--><g   id="j_21"  style="opacity: 1;"><path fill="none" cursor="pointer" stroke="transparent" stroke-linecap="round" joint-selector="wrapper" id="v-203" stroke-width="10" stroke-linejoin="round" d="M 1440 769 L 1600 769 C 1606.6666666666665 769 1610 769 1610 769 L 1610 769 C 1610 769.1999999999998 1613.3333333333333 769.1999999999998 1620 769 L 1995 769 C 2001.6666666666665 769.1999999999998 2004.9999999999998 765.8666666666666 2005 759 L 2005 635"></path><path fill="none" pointer-events="none" joint-selector="line" id="v-202" stroke="#707070" stroke-width="2" stroke-linejoin="round" stroke-dasharray="" d="M 1440 769 L 1600 769 C 1606.6666666666665 769 1610 769 1610 769 L 1610 769 C 1610 769.1999999999998 1613.3333333333333 769.1999999999998 1620 769 L 1995 769 C 2001.6666666666665 769.1999999999998 2004.9999999999998 765.8666666666666 2005 759 L 2005 635" marker-end="url(#v-2-480243263)"></path><g id="v-192" ><g id="v-193"  label-idx="0" cursor="move" transform="matrix(1,0,0,1,1735.58935546875,758.4000244140625)" style="cursor: default;"><rect joint-selector="rect" id="v-197" fill="#111111" rx="3" ry="3" x="-27.752975463867188" y="-11.866665840148926" width="57.859657287597656" height="21.428571701049805" pointer-events="none"  style="display: block;"></rect><text joint-selector="text" id="v-196" font-size="16px" xml:space="preserve" fill="#707070" text-anchor="middle" pointer-events="none" font-family="Tahoma, Verdana, Helvetica, Arial" font-weight="normal"  style="display: block;"><tspan dy="0.3em" >Deploys</tspan></text></g><g id="v-194"  label-idx="1" cursor="move" transform="matrix(1,0,0,1,1735.58935546875,782)" style="cursor: default;"><rect joint-selector="rect" id="v-199" fill="#111111" rx="3" ry="3" x="-17.001487731933594" y="-8.544761657714844" width="34.44827651977539" height="14.285714149475098"  pointer-events="none" style="display: block;"></rect><text joint-selector="text" id="v-198" font-size="11.2px" xml:space="preserve" fill="#707070" text-anchor="middle" pointer-events="none" font-family="Tahoma, Verdana, Helvetica, Arial" font-weight="normal"  style="display: block;"><tspan dy="0.3em" >[Helm]</tspan></text></g><g id="v-195"  label-idx="2" cursor="move" transform="matrix(1,0,0,1,1777.6666259765625,787.5999755859375)" style="cursor: default;"><rect joint-selector="rect" id="v-201" fill="#ffffff" rx="3" ry="3" x="0" y="0" width="0" height="0"  display="none"></rect><text joint-selector="text" id="v-200" fill="#000000" font-size="14" text-anchor="middle" text-vertical-anchor="middle" pointer-events="none"></text></g></g></g><!--z-index:30--></g><g  style="user-select: none;"></g><g ></g><g  display="none"></g></g></svg>