<svg xmlns="http://www.w3.org/2000/svg" xmlns:xlink="http://www.w3.org/1999/xlink" version="1.1" width="2919.999998274304" height="1804.7785622505917" style="width: 2919.999998274304px; height: 1804.7785622505917px; background: #111111" viewBox="150.0000060853504 104.22142067409698 2919.999998274304 1804.7785622505917"><style id="v-3" type="text/css">        .joint-element .scalable * {            vector-effect: non-scaling-stroke;        }    </style><defs joint-selector="defs"><marker id="v-2-381586655" orient="auto" overflow="visible" markerUnits="userSpaceOnUse"><path id="v-186" stroke="#eeea1e" fill="#eeea1e" transform="rotate(180)" d="M 20 -10 0 0 20 10 Z"></path></marker></defs><g joint-selector="layers"  transform="matrix(1,0,0,1,0,0)"><g  style="pointer-events: none;"></g><g ></g><g  style="user-select: none;"><!--z-index:1--><!--z-index:2--><!--z-index:3--><!--z-index:4--><!--z-index:5--><!--z-index:6--><!--z-index:7--><!--z-index:8--><!--z-index:9--><!--z-index:10--><!--z-index:11--><!--z-index:12--><!--z-index:13--><!--z-index:14--><!--z-index:15--><!--z-index:16--><!--z-index:17--><!--z-index:18--><!--z-index:19--><!--z-index:20--><!--z-index:21--><g   id="j_249"  transform="translate(20,2051)"><g id="v-2734"><text  id="v-2735" font-size="24px" xml:space="preserve" y="0.8em" font-weight="normal" text-anchor="start" fill="#cccccc" pointer-events="none" display="block" font-family="Tahoma, Verdana, Helvetica, Arial"><tspan dy="0"  display="none">Thursday, 6 August 2026 at 20:40 Central European Summer Time</tspan></text></g></g><!--z-index:22--><g   id="j_248"  transform="translate(20,2005)"><g id="v-2732"><text  id="v-2733" font-size="36px" xml:space="preserve" y="0.8em" font-weight="normal" text-anchor="start" fill="#cccccc" pointer-events="none" display="block" font-family="Tahoma, Verdana, Helvetica, Arial"><tspan dy="0"  display="none">System Landscape View</tspan></text></g></g><!--z-index:23--><g   id="j_250"  transform="translate(225,409)" style=""><g  id="v-2739" style="opacity: 1;"><rect  x="0" y="160" width="400" height="240" rx="70" id="v-2741" stroke-width="3" pointer-events="visiblePainted" fill="#0f766e" stroke="#134e4a" stroke-dasharray="" style="fill: rgb(15, 118, 110); stroke: rgb(19, 78, 74);"></rect><circle  cx="200" cy="88.88888888888889" r="88.88888888888889" id="v-2740" stroke-width="3" pointer-events="visiblePainted" fill="#0f766e" stroke="#134e4a" stroke-dasharray="" style="fill: rgb(15, 118, 110); stroke: rgb(19, 78, 74);"></circle><line  x1="80" y1="266.6666666666667" x2="80" y2="400" id="v-2747" stroke="#134e4a" stroke-width="1" stroke-dasharray="" style="stroke: rgb(19, 78, 74);"></line><line  x1="320" y1="266.6666666666667" x2="320" y2="400" id="v-2748" stroke="#134e4a" stroke-width="1" stroke-dasharray="" style="stroke: rgb(19, 78, 74);"></line><text  id="v-2742" font-size="28px" xml:space="preserve" y="225.5" font-weight="bold" text-anchor="middle" pointer-events="visible" font-family="Tahoma, Verdana, Helvetica, Arial" fill="#dfdada" dominant-baseline="hanging" transform="matrix(1,0,0,1,200,0)" style="fill: rgb(223, 218, 218);"><tspan dy="0" >Developer</tspan></text><text  id="v-2743" font-size="14px" xml:space="preserve" y="261.5" text-anchor="middle" font-family="Tahoma, Verdana, Helvetica, Arial" fill="#dfdada" dominant-baseline="hanging" transform="matrix(1,0,0,1,200,0)" style="display: block; fill: rgb(223, 218, 218);"><tspan dy="0" >[Person]</tspan></text><text  id="v-2744" font-size="20px" xml:space="preserve" y="290.5" text-anchor="middle" font-family="Tahoma, Verdana, Helvetica, Arial" fill="#dfdada" dominant-baseline="hanging" transform="matrix(1,0,0,1,200,0)" style="display: block; fill: rgb(223, 218, 218);"><tspan dy="0" >Engineer running and deploying</tspan><tspan dy="1.2em" x="0" >applications locally.</tspan></text><g  id="v-2745" font-weight="normal" text-anchor="middle" color="#dfdada" transform="matrix(1,0,0,1,197.5,368)" display="none" style="fill: rgb(223, 218, 218);"><g ></g><g ></g><g ></g><g ></g></g><image  id="v-2746"></image></g></g><!--z-index:24--><g   id="j_251"  transform="translate(1780,418)" style=""><g  id="v-2755" style="opacity: 1;"><rect  id="v-2756" rx="20" ry="20" stroke-width="3" pointer-events="visiblePainted" fill="#7738a1" stroke="#5b2b77" stroke-dasharray="" width="450" height="300" style="fill: rgb(119, 56, 161); stroke: rgb(91, 43, 119);"></rect><text  id="v-2757" font-size="28px" xml:space="preserve" y="95.5" font-weight="bold" text-anchor="middle" pointer-events="visible" font-family="Tahoma, Verdana, Helvetica, Arial" fill="#dfdada" dominant-baseline="hanging" transform="matrix(1,0,0,1,225,0)" style="fill: rgb(223, 218, 218);"><tspan dy="0" >Local Kubernetes Platform</tspan></text><text  id="v-2758" font-size="14px" xml:space="preserve" y="131.5" text-anchor="middle" font-family="Tahoma, Verdana, Helvetica, Arial" fill="#dfdada" dominant-baseline="hanging" transform="matrix(1,0,0,1,225,0)" style="display: block; fill: rgb(223, 218, 218);"><tspan dy="0" >[Software System]</tspan></text><text  id="v-2759" font-size="20px" xml:space="preserve" y="160.5" text-anchor="middle" font-family="Tahoma, Verdana, Helvetica, Arial" fill="#dfdada" dominant-baseline="hanging" transform="matrix(1,0,0,1,225,0)" style="display: block; fill: rgb(223, 218, 218);"><tspan dy="0" >Runs FastAPI and Django applications on a</tspan><tspan dy="1.2em" x="0" >local k3d Kubernetes cluster.</tspan></text><g  id="v-2760" color="#dfdada" transform="matrix(1,0,0,1,185,268)" display="none" style="fill: rgb(223, 218, 218);"><g  transform="translate(5 0)"><svg xmlns="http://www.w3.org/2000/svg" width="20" height="20" fill="currentColor" viewBox="0 0 16 16"><path fill-rule="evenodd" d="M6.5 12a5.5 5.5 0 1 0 0-11 5.5 5.5 0 0 0 0 11zM13 6.5a6.5 6.5 0 1 1-13 0 6.5 6.5 0 0 1 13 0z"></path><path d="M10.344 11.742c.03.04.062.078.098.115l3.85 3.85a1 1 0 0 0 1.415-1.414l-3.85-3.85a1.007 1.007 0 0 0-.115-.1 6.538 6.538 0 0 1-1.398 1.4z"></path><path fill-rule="evenodd" d="M6.5 3a.5.5 0 0 1 .5.5V6h2.5a.5.5 0 0 1 0 1H7v2.5a.5.5 0 0 1-1 0V7H3.5a.5.5 0 0 1 0-1H6V3.5a.5.5 0 0 1 .5-.5z"></path></svg></g><g  transform="translate(30 0)"><svg xmlns="http://www.w3.org/2000/svg" width="20" height="20" fill="currentColor" viewBox="0 0 16 16"><path d="M1 2.828c.885-.37 2.154-.769 3.388-.893 1.33-.134 2.458.063 3.112.752v9.746c-.935-.53-2.12-.603-3.213-.493-1.18.12-2.37.461-3.287.811V2.828zm7.5-.141c.654-.689 1.782-.886 3.112-.752 1.234.124 2.503.523 3.388.893v9.923c-.918-.35-2.107-.692-3.287-.81-1.094-.111-2.278-.039-3.213.492V2.687zM8 1.783C7.015.936 5.587.81 4.287.94c-1.514.153-3.042.672-3.994 1.105A.5.5 0 0 0 0 2.5v11a.5.5 0 0 0 .707.455c.882-.4 2.303-.881 3.68-1.02 1.409-.142 2.59.087 3.223.877a.5.5 0 0 0 .78 0c.633-.79 1.814-1.019 3.222-.877 1.378.139 2.8.62 3.681 1.02A.5.5 0 0 0 16 13.5v-11a.5.5 0 0 0-.293-.455c-.952-.433-2.48-.952-3.994-1.105C10.413.809 8.985.936 8 1.783z"></path></svg></g><g  transform="translate(55 0)"><svg xmlns="http://www.w3.org/2000/svg" width="20" height="20" fill="currentColor" viewBox="0 0 16 16"><path d="M5 10.5a.5.5 0 0 1 .5-.5h2a.5.5 0 0 1 0 1h-2a.5.5 0 0 1-.5-.5zm0-2a.5.5 0 0 1 .5-.5h5a.5.5 0 0 1 0 1h-5a.5.5 0 0 1-.5-.5zm0-2a.5.5 0 0 1 .5-.5h5a.5.5 0 0 1 0 1h-5a.5.5 0 0 1-.5-.5zm0-2a.5.5 0 0 1 .5-.5h5a.5.5 0 0 1 0 1h-5a.5.5 0 0 1-.5-.5z"></path><path d="M3 0h10a2 2 0 0 1 2 2v12a2 2 0 0 1-2 2H3a2 2 0 0 1-2-2v-1h1v1a1 1 0 0 0 1 1h10a1 1 0 0 0 1-1V2a1 1 0 0 0-1-1H3a1 1 0 0 0-1 1v1H1V2a2 2 0 0 1 2-2z"></path><path d="M1 5v-.5a.5.5 0 0 1 1 0V5h.5a.5.5 0 0 1 0 1h-2a.5.5 0 0 1 0-1H1zm0 3v-.5a.5.5 0 0 1 1 0V8h.5a.5.5 0 0 1 0 1h-2a.5.5 0 0 1 0-1H1zm0 3v-.5a.5.5 0 0 1 1 0v.5h.5a.5.5 0 0 1 0 1h-2a.5.5 0 0 1 0-1H1z"></path></svg></g><g ></g></g><image  id="v-2761"></image></g></g><!--z-index:25--><g   id="j_252"  transform="translate(2570,418)" style=""><g  id="v-2765" style="opacity: 1;"><rect  id="v-2766" rx="20" ry="20" stroke-width="3" pointer-events="visiblePainted" fill="#7738a1" stroke="#5b2b77" stroke-dasharray="" width="450" height="300" style="fill: rgb(119, 56, 161); stroke: rgb(91, 43, 119);"></rect><text  id="v-2767" font-size="28px" xml:space="preserve" y="107.5" font-weight="bold" text-anchor="middle" pointer-events="visible" font-family="Tahoma, Verdana, Helvetica, Arial" fill="#dfdada" dominant-baseline="hanging" transform="matrix(1,0,0,1,225,0)" style="fill: rgb(223, 218, 218);"><tspan dy="0" >k3d Cluster</tspan></text><text  id="v-2768" font-size="14px" xml:space="preserve" y="143.5" text-anchor="middle" font-family="Tahoma, Verdana, Helvetica, Arial" fill="#dfdada" dominant-baseline="hanging" transform="matrix(1,0,0,1,225,0)" style="display: block; fill: rgb(223, 218, 218);"><tspan dy="0" >[Software System]</tspan></text><text  id="v-2769" font-size="20px" xml:space="preserve" y="172.5" text-anchor="middle" font-family="Tahoma, Verdana, Helvetica, Arial" fill="#dfdada" dominant-baseline="hanging" transform="matrix(1,0,0,1,225,0)" style="display: block; fill: rgb(223, 218, 218);"><tspan dy="0" >Local Kubernetes runtime environment.</tspan></text><g  id="v-2770" color="#dfdada" transform="matrix(1,0,0,1,222.5,268)" display="none" style="fill: rgb(223, 218, 218);"><g ></g><g ></g><g ></g><g ></g></g><image  id="v-2771"></image></g></g><!--z-index:26--><g   id="j_253"  transform="translate(990,284)" style=""><g  id="v-2775" style="opacity: 1;"><rect  id="v-2776" rx="20" ry="20" stroke-width="3" pointer-events="visiblePainted" fill="#7738a1" stroke="#5b2b77" stroke-dasharray="" width="450" height="300" style="fill: rgb(119, 56, 161); stroke: rgb(91, 43, 119);"></rect><text  id="v-2777" font-size="28px" xml:space="preserve" y="95.5" font-weight="bold" text-anchor="middle" pointer-events="visible" font-family="Tahoma, Verdana, Helvetica, Arial" fill="#dfdada" dominant-baseline="hanging" transform="matrix(1,0,0,1,225,0)" style="fill: rgb(223, 218, 218);"><tspan dy="0" >ArgoCD</tspan></text><text  id="v-2778" font-size="14px" xml:space="preserve" y="131.5" text-anchor="middle" font-family="Tahoma, Verdana, Helvetica, Arial" fill="#dfdada" dominant-baseline="hanging" transform="matrix(1,0,0,1,225,0)" style="display: block; fill: rgb(223, 218, 218);"><tspan dy="0" >[Software System]</tspan></text><text  id="v-2779" font-size="20px" xml:space="preserve" y="160.5" text-anchor="middle" font-family="Tahoma, Verdana, Helvetica, Arial" fill="#dfdada" dominant-baseline="hanging" transform="matrix(1,0,0,1,225,0)" style="display: block; fill: rgb(223, 218, 218);"><tspan dy="0" >Continuously deploys the platform from Git</tspan><tspan dy="1.2em" x="0" >using GitOps.</tspan></text><g  id="v-2780" color="#dfdada" transform="matrix(1,0,0,1,222.5,268)" display="none" style="fill: rgb(223, 218, 218);"><g ></g><g ></g><g ></g><g ></g></g><image  id="v-2781"></image></g></g><!--z-index:27--><g   id="j_254"  transform="translate(200,859)" style=""><g  id="v-2785" style="opacity: 1;"><rect  id="v-2786" rx="20" ry="20" stroke-width="3" pointer-events="visiblePainted" fill="#7738a1" stroke="#5b2b77" stroke-dasharray="" width="450" height="300" style="fill: rgb(119, 56, 161); stroke: rgb(91, 43, 119);"></rect><text  id="v-2787" font-size="28px" xml:space="preserve" y="107.5" font-weight="bold" text-anchor="middle" pointer-events="visible" font-family="Tahoma, Verdana, Helvetica, Arial" fill="#dfdada" dominant-baseline="hanging" transform="matrix(1,0,0,1,225,0)" style="fill: rgb(223, 218, 218);"><tspan dy="0" >HashiCorp Vault</tspan></text><text  id="v-2788" font-size="14px" xml:space="preserve" y="143.5" text-anchor="middle" font-family="Tahoma, Verdana, Helvetica, Arial" fill="#dfdada" dominant-baseline="hanging" transform="matrix(1,0,0,1,225,0)" style="display: block; fill: rgb(223, 218, 218);"><tspan dy="0" >[Software System]</tspan></text><text  id="v-2789" font-size="20px" xml:space="preserve" y="172.5" text-anchor="middle" font-family="Tahoma, Verdana, Helvetica, Arial" fill="#dfdada" dominant-baseline="hanging" transform="matrix(1,0,0,1,225,0)" style="display: block; fill: rgb(223, 218, 218);"><tspan dy="0" >Stores and injects application secrets.</tspan></text><g  id="v-2790" color="#dfdada" transform="matrix(1,0,0,1,222.5,268)" display="none" style="fill: rgb(223, 218, 218);"><g ></g><g ></g><g ></g><g ></g></g><image  id="v-2791"></image></g></g><!--z-index:28--><g   id="j_255"  transform="translate(200,1209)" style=""><g  id="v-2795" style="opacity: 1;"><rect  id="v-2796" rx="20" ry="20" stroke-width="3" pointer-events="visiblePainted" fill="#7738a1" stroke="#5b2b77" stroke-dasharray="" width="450" height="300" style="fill: rgb(119, 56, 161); stroke: rgb(91, 43, 119);"></rect><text  id="v-2797" font-size="28px" xml:space="preserve" y="83.5" font-weight="bold" text-anchor="middle" pointer-events="visible" font-family="Tahoma, Verdana, Helvetica, Arial" fill="#dfdada" dominant-baseline="hanging" transform="matrix(1,0,0,1,225,0)" style="fill: rgb(223, 218, 218);"><tspan dy="0" >Monitoring Stack</tspan></text><text  id="v-2798" font-size="14px" xml:space="preserve" y="119.5" text-anchor="middle" font-family="Tahoma, Verdana, Helvetica, Arial" fill="#dfdada" dominant-baseline="hanging" transform="matrix(1,0,0,1,225,0)" style="display: block; fill: rgb(223, 218, 218);"><tspan dy="0" >[Software System]</tspan></text><text  id="v-2799" font-size="20px" xml:space="preserve" y="148.5" text-anchor="middle" font-family="Tahoma, Verdana, Helvetica, Arial" fill="#dfdada" dominant-baseline="hanging" transform="matrix(1,0,0,1,225,0)" style="display: block; fill: rgb(223, 218, 218);"><tspan dy="0" >Collects and visualises metrics from the</tspan><tspan dy="1.2em" x="0" >platform using Prometheus, Grafana, and</tspan><tspan dy="1.2em" x="0" >Tempo.</tspan></text><g  id="v-2800" color="#dfdada" transform="matrix(1,0,0,1,222.5,268)" display="none" style="fill: rgb(223, 218, 218);"><g ></g><g ></g><g ></g><g ></g></g><image  id="v-2801"></image></g></g><!--z-index:29--><g   id="j_256"  transform="translate(200,1559)" style=""><g  id="v-2805" style="opacity: 1;"><rect  id="v-2806" rx="20" ry="20" stroke-width="3" pointer-events="visiblePainted" fill="#7738a1" stroke="#5b2b77" stroke-dasharray="" width="450" height="300" style="fill: rgb(119, 56, 161); stroke: rgb(91, 43, 119);"></rect><text  id="v-2807" font-size="28px" xml:space="preserve" y="83.5" font-weight="bold" text-anchor="middle" pointer-events="visible" font-family="Tahoma, Verdana, Helvetica, Arial" fill="#dfdada" dominant-baseline="hanging" transform="matrix(1,0,0,1,225,0)" style="fill: rgb(223, 218, 218);"><tspan dy="0" >Logging Stack</tspan></text><text  id="v-2808" font-size="14px" xml:space="preserve" y="119.5" text-anchor="middle" font-family="Tahoma, Verdana, Helvetica, Arial" fill="#dfdada" dominant-baseline="hanging" transform="matrix(1,0,0,1,225,0)" style="display: block; fill: rgb(223, 218, 218);"><tspan dy="0" >[Software System]</tspan></text><text  id="v-2809" font-size="20px" xml:space="preserve" y="148.5" text-anchor="middle" font-family="Tahoma, Verdana, Helvetica, Arial" fill="#dfdada" dominant-baseline="hanging" transform="matrix(1,0,0,1,225,0)" style="display: block; fill: rgb(223, 218, 218);"><tspan dy="0" >Collects and indexes application and</tspan><tspan dy="1.2em" x="0" >container logs using Elasticsearch and</tspan><tspan dy="1.2em" x="0" >Kibana.</tspan></text><g  id="v-2810" color="#dfdada" transform="matrix(1,0,0,1,222.5,268)" display="none" style="fill: rgb(223, 218, 218);"><g ></g><g ></g><g ></g><g ></g></g><image  id="v-2811"></image></g></g><!--z-index:30--><g   id="j_257"  transform="translate(2570,768)" style=""><g  id="v-2815" style="opacity: 1;"><rect  id="v-2816" rx="20" ry="20" stroke-width="3" pointer-events="visiblePainted" fill="#7738a1" stroke="#5b2b77" stroke-dasharray="" width="450" height="300" style="fill: rgb(119, 56, 161); stroke: rgb(91, 43, 119);"></rect><text  id="v-2817" font-size="28px" xml:space="preserve" y="107.5" font-weight="bold" text-anchor="middle" pointer-events="visible" font-family="Tahoma, Verdana, Helvetica, Arial" fill="#dfdada" dominant-baseline="hanging" transform="matrix(1,0,0,1,225,0)" style="fill: rgb(223, 218, 218);"><tspan dy="0" >SonarQube</tspan></text><text  id="v-2818" font-size="14px" xml:space="preserve" y="143.5" text-anchor="middle" font-family="Tahoma, Verdana, Helvetica, Arial" fill="#dfdada" dominant-baseline="hanging" transform="matrix(1,0,0,1,225,0)" style="display: block; fill: rgb(223, 218, 218);"><tspan dy="0" >[Software System]</tspan></text><text  id="v-2819" font-size="20px" xml:space="preserve" y="172.5" text-anchor="middle" font-family="Tahoma, Verdana, Helvetica, Arial" fill="#dfdada" dominant-baseline="hanging" transform="matrix(1,0,0,1,225,0)" style="display: block; fill: rgb(223, 218, 218);"><tspan dy="0" >Analyses code quality and test coverage.</tspan></text><g  id="v-2820" color="#dfdada" transform="matrix(1,0,0,1,222.5,268)" display="none" style="fill: rgb(223, 218, 218);"><g ></g><g ></g><g ></g><g ></g></g><image  id="v-2821"></image></g></g><!--z-index:31--><g   id="j_258"  transform="translate(990,634)" style=""><g  id="v-2825" style="opacity: 1;"><rect  id="v-2826" rx="20" ry="20" stroke-width="3" pointer-events="visiblePainted" fill="#7738a1" stroke="#5b2b77" stroke-dasharray="" width="450" height="300" style="fill: rgb(119, 56, 161); stroke: rgb(91, 43, 119);"></rect><text  id="v-2827" font-size="28px" xml:space="preserve" y="95.5" font-weight="bold" text-anchor="middle" pointer-events="visible" font-family="Tahoma, Verdana, Helvetica, Arial" fill="#dfdada" dominant-baseline="hanging" transform="matrix(1,0,0,1,225,0)" style="fill: rgb(223, 218, 218);"><tspan dy="0" >Tilt</tspan></text><text  id="v-2828" font-size="14px" xml:space="preserve" y="131.5" text-anchor="middle" font-family="Tahoma, Verdana, Helvetica, Arial" fill="#dfdada" dominant-baseline="hanging" transform="matrix(1,0,0,1,225,0)" style="display: block; fill: rgb(223, 218, 218);"><tspan dy="0" >[Software System]</tspan></text><text  id="v-2829" font-size="20px" xml:space="preserve" y="160.5" text-anchor="middle" font-family="Tahoma, Verdana, Helvetica, Arial" fill="#dfdada" dominant-baseline="hanging" transform="matrix(1,0,0,1,225,0)" style="display: block; fill: rgb(223, 218, 218);"><tspan dy="0" >Local development environment</tspan><tspan dy="1.2em" x="0" >orchestrator for live-update deployments.</tspan></text><g  id="v-2830" color="#dfdada" transform="matrix(1,0,0,1,222.5,268)" display="none" style="fill: rgb(223, 218, 218);"><g ></g><g ></g><g ></g><g ></g></g><image  id="v-2831"></image></g></g><!--z-index:32--><g   id="j_259"  transform="translate(990,1268)" style=""><g  id="v-2835" style="opacity: 1;"><rect  id="v-2836" rx="20" ry="20" stroke-width="3" pointer-events="visiblePainted" fill="#7738a1" stroke="#5b2b77" stroke-dasharray="" width="450" height="300" style="fill: rgb(119, 56, 161); stroke: rgb(91, 43, 119);"></rect><text  id="v-2837" font-size="28px" xml:space="preserve" y="95.5" font-weight="bold" text-anchor="middle" pointer-events="visible" font-family="Tahoma, Verdana, Helvetica, Arial" fill="#dfdada" dominant-baseline="hanging" transform="matrix(1,0,0,1,225,0)" style="fill: rgb(223, 218, 218);"><tspan dy="0" >Task</tspan></text><text  id="v-2838" font-size="14px" xml:space="preserve" y="131.5" text-anchor="middle" font-family="Tahoma, Verdana, Helvetica, Arial" fill="#dfdada" dominant-baseline="hanging" transform="matrix(1,0,0,1,225,0)" style="display: block; fill: rgb(223, 218, 218);"><tspan dy="0" >[Software System]</tspan></text><text  id="v-2839" font-size="20px" xml:space="preserve" y="160.5" text-anchor="middle" font-family="Tahoma, Verdana, Helvetica, Arial" fill="#dfdada" dominant-baseline="hanging" transform="matrix(1,0,0,1,225,0)" style="display: block; fill: rgb(223, 218, 218);"><tspan dy="0" >Cross-platform task runner for automation</tspan><tspan dy="1.2em" x="0" >scripts.</tspan></text><g  id="v-2840" color="#dfdada" transform="matrix(1,0,0,1,222.5,268)" display="none" style="fill: rgb(223, 218, 218);"><g ></g><g ></g><g ></g><g ></g></g><image  id="v-2841"></image></g></g><!--z-index:33--><g   id="j_260"  style="opacity: 1;"><path fill="none" cursor="pointer" stroke="transparent" stroke-linecap="round" joint-selector="wrapper" id="v-2859" stroke-width="10" stroke-linejoin="round" d="M 425 409 L 425 185 C 425 178.06666666666666 428.3333333333333 174.73333333333332 435 175 L 810 175 C 816.6666666666666 174.73333333333332 823.3333333333333 174.73333333333332 830 175 L 1600 175 C 1606.6666666666665 174.73333333333332 1613.3333333333333 174.73333333333332 1620 175 L 1995 175 C 2001.6666666666665 174.73333333333332 2004.9999999999998 178.06666666666666 2005 185 L 2005 418"></path><path fill="none" pointer-events="none" joint-selector="line" id="v-2858" stroke="#eeea1e" stroke-width="2" stroke-linejoin="round" stroke-dasharray="" d="M 425 409 L 425 185 C 425 178.06666666666666 428.3333333333333 174.73333333333332 435 175 L 810 175 C 816.6666666666666 174.73333333333332 823.3333333333333 174.73333333333332 830 175 L 1600 175 C 1606.6666666666665 174.73333333333332 1613.3333333333333 174.73333333333332 1620 175 L 1995 175 C 2001.6666666666665 174.73333333333332 2004.9999999999998 178.06666666666666 2005 185 L 2005 418" marker-end="url(#v-2-381586655)"></path><g id="v-2848" ><g id="v-2849"  label-idx="0" cursor="move" transform="matrix(1,0,0,1,1200.0008544921875,164.39999389648438)" style="cursor: default;"><rect joint-selector="rect" id="v-2853" fill="#111111" rx="3" ry="3" x="-89.50086212158203" y="-10.178571701049805" width="181.00637817382812" height="19.97142791748047" pointer-events="none"  style="display: block;"></rect><text joint-selector="text" id="v-2852" font-size="16px" xml:space="preserve" fill="#eeea1e" text-anchor="middle" pointer-events="none" font-family="Tahoma, Verdana, Helvetica, Arial" font-weight="normal"  style="display: block;"><tspan dy="0.3em" >Develops and runs locally</tspan></text></g><g id="v-2850"  label-idx="1" cursor="move" transform="matrix(1,0,0,1,1200.0008544921875,188)" style="cursor: default;"><rect joint-selector="rect" id="v-2855" fill="#111111" rx="3" ry="3" x="-92.11431121826172" y="-6.625713348388672" width="184.90838623046875" height="12.482142448425293"  pointer-events="none" style="display: block;"></rect><text joint-selector="text" id="v-2854" font-size="11.2px" xml:space="preserve" fill="#eeea1e" text-anchor="middle" pointer-events="none" font-family="Tahoma, Verdana, Helvetica, Arial" font-weight="normal"  style="display: block;"><tspan dy="0.3em" >[Task, Tilt, kubectl, Kustomize, Helm]</tspan></text></g><g id="v-2851"  label-idx="2" cursor="move" transform="matrix(1,0,0,1,1209.5,193.60000610351562)" style="cursor: default;"><rect joint-selector="rect" id="v-2857" fill="#ffffff" rx="3" ry="3" x="0" y="2.842170943040401e-14" width="0" height="0"  display="none"></rect><text joint-selector="text" id="v-2856" fill="#000000" font-size="14" text-anchor="middle" text-vertical-anchor="middle" pointer-events="none"></text></g></g></g><!--z-index:34--><g   id="j_261"  style="opacity: 1;"><path fill="none" cursor="pointer" stroke="transparent" stroke-linecap="round" joint-selector="wrapper" id="v-2874" stroke-width="10" stroke-linejoin="round" d="M 625 609 L 810 609 C 816.6666666666666 609 820 612.3333333333333 820 619 L 820 775 C 820 781.4333333333332 820 788.0999999999999 820 795 L 820 944 C 820 950.6666666666666 823.3333333333333 954 830 954 L 1205 954 C 1211.6666666666665 954 1215 950.6666666666666 1215 944 L 1215 934"></path><path fill="none" pointer-events="none" joint-selector="line" id="v-2873" stroke="#eeea1e" stroke-width="2" stroke-linejoin="round" stroke-dasharray="" d="M 625 609 L 810 609 C 816.6666666666666 609 820 612.3333333333333 820 619 L 820 775 C 820 781.4333333333332 820 788.0999999999999 820 795 L 820 944 C 820 950.6666666666666 823.3333333333333 954 830 954 L 1205 954 C 1211.6666666666665 954 1215 950.6666666666666 1215 944 L 1215 934" marker-end="url(#v-2-381586655)"></path><g id="v-2863" ><g id="v-2864"  label-idx="0" cursor="move" transform="matrix(1,0,0,1,820,932.2969360351562)" style="cursor: default;"><rect joint-selector="rect" id="v-2868" fill="#111111" rx="3" ry="3" x="-81.4849853515625" y="-19.7785701751709" width="162.01792907714844" height="39.17142868041992" pointer-events="none"  style="display: block;"></rect><text joint-selector="text" id="v-2867" font-size="16px" xml:space="preserve" fill="#eeea1e" text-anchor="middle" pointer-events="none" font-family="Tahoma, Verdana, Helvetica, Arial" font-weight="normal"  style="display: block;"><tspan dy="-0.3em" >Configures live-update</tspan><tspan dy="1.2em" x="0" >deployments</tspan></text></g><g id="v-2865"  label-idx="1" cursor="move" transform="matrix(1,0,0,1,820,965.4969482421875)" style="cursor: default;"><rect joint-selector="rect" id="v-2870" fill="#111111" rx="3" ry="3" x="-12.521148681640625" y="-6.625713348388672" width="25.727962493896484" height="12.482142448425293"  pointer-events="none" style="display: block;"></rect><text joint-selector="text" id="v-2869" font-size="11.2px" xml:space="preserve" fill="#eeea1e" text-anchor="middle" pointer-events="none" font-family="Tahoma, Verdana, Helvetica, Arial" font-weight="normal"  style="display: block;"><tspan dy="0.3em" >[CLI]</tspan></text></g><g id="v-2866"  label-idx="2" cursor="move" transform="matrix(1,0,0,1,810,917.8153076171875)" style="cursor: default;"><rect joint-selector="rect" id="v-2872" fill="#ffffff" rx="3" ry="3" x="0" y="0" width="0" height="0"  display="none"></rect><text joint-selector="text" id="v-2871" fill="#000000" font-size="14" text-anchor="middle" text-vertical-anchor="middle" pointer-events="none"></text></g></g></g><!--z-index:35--><g   id="j_262"  style="opacity: 1;"><path fill="none" cursor="pointer" stroke="transparent" stroke-linecap="round" joint-selector="wrapper" id="v-2889" stroke-width="10" stroke-linejoin="round" d="M 425 809 L 425 1409 C 425 1415.6333333333332 428.3333333333333 1418.9666666666665 435 1419 L 810 1419 C 816.6666666666666 1418.9666666666665 820 1418.6333333333332 820 1418 L 820 1418 C 820 1418 823.3333333333333 1418 830 1418 L 990 1418"></path><path fill="none" pointer-events="none" joint-selector="line" id="v-2888" stroke="#eeea1e" stroke-width="2" stroke-linejoin="round" stroke-dasharray="" d="M 425 809 L 425 1409 C 425 1415.6333333333332 428.3333333333333 1418.9666666666665 435 1419 L 810 1419 C 816.6666666666666 1418.9666666666665 820 1418.6333333333332 820 1418 L 820 1418 C 820 1418 823.3333333333333 1418 830 1418 L 990 1418" marker-end="url(#v-2-381586655)"></path><g id="v-2878" ><g id="v-2879"  label-idx="0" cursor="move" transform="matrix(1,0,0,1,755.3670043945312,1408.4000244140625)" style="cursor: default;"><rect joint-selector="rect" id="v-2883" fill="#111111" rx="3" ry="3" x="-73.48861694335938" y="-19.7785701751709" width="148.02244567871094" height="36.67499923706055" pointer-events="none"  style="display: block;"></rect><text joint-selector="text" id="v-2882" font-size="16px" xml:space="preserve" fill="#eeea1e" text-anchor="middle" pointer-events="none" font-family="Tahoma, Verdana, Helvetica, Arial" font-weight="normal"  style="display: block;"><tspan dy="-0.3em" >Executes automation</tspan><tspan dy="1.2em" x="0" >workflows</tspan></text></g><g id="v-2880"  label-idx="1" cursor="move" transform="matrix(1,0,0,1,755.3670043945312,1441.5999755859375)" style="cursor: default;"><rect joint-selector="rect" id="v-2885" fill="#111111" rx="3" ry="3" x="-12.521148681640625" y="-6.625713348388672" width="25.727962493896484" height="12.482142448425293"  pointer-events="none" style="display: block;"></rect><text joint-selector="text" id="v-2884" font-size="11.2px" xml:space="preserve" fill="#eeea1e" text-anchor="middle" pointer-events="none" font-family="Tahoma, Verdana, Helvetica, Arial" font-weight="normal"  style="display: block;"><tspan dy="0.3em" >[CLI]</tspan></text></g><g id="v-2881"  label-idx="2" cursor="move" transform="matrix(1,0,0,1,415,1422.9071044921875)" style="cursor: default;"><rect joint-selector="rect" id="v-2887" fill="#ffffff" rx="3" ry="3" x="-2.2737367544323206e-13" y="0" width="0" height="0"  display="none"></rect><text joint-selector="text" id="v-2886" fill="#000000" font-size="14" text-anchor="middle" text-vertical-anchor="middle" pointer-events="none"></text></g></g></g><!--z-index:36--><g   id="j_263"  style="opacity: 1;"><path fill="none" cursor="pointer" stroke="transparent" stroke-linecap="round" joint-selector="wrapper" id="v-2904" stroke-width="10" stroke-linejoin="round" d="M 625 609 L 810 609 C 816.6666666666666 609 820 605.6666666666666 820 599 L 820 445 C 820 438.09999999999997 820 434.4333333333333 820 434 L 820 434 C 820 434 823.3333333333333 434 830 434 L 990 434"></path><path fill="none" pointer-events="none" joint-selector="line" id="v-2903" stroke="#eeea1e" stroke-width="2" stroke-linejoin="round" stroke-dasharray="" d="M 625 609 L 810 609 C 816.6666666666666 609 820 605.6666666666666 820 599 L 820 445 C 820 438.09999999999997 820 434.4333333333333 820 434 L 820 434 C 820 434 823.3333333333333 434 830 434 L 990 434" marker-end="url(#v-2-381586655)"></path><g id="v-2893" ><g id="v-2894"  label-idx="0" cursor="move" transform="matrix(1,0,0,1,820,491.2392883300781)" style="cursor: default;"><rect joint-selector="rect" id="v-2898" fill="#111111" rx="3" ry="3" x="-90.39801788330078" y="-10.178571701049805" width="181.15460205078125" height="19.97142791748047" pointer-events="none"  style="display: block;"></rect><text joint-selector="text" id="v-2897" font-size="16px" xml:space="preserve" fill="#eeea1e" text-anchor="middle" pointer-events="none" font-family="Tahoma, Verdana, Helvetica, Arial" font-weight="normal"  style="display: block;"><tspan dy="0.3em" >Manages GitOps pipelines</tspan></text></g><g id="v-2895"  label-idx="1" cursor="move" transform="matrix(1,0,0,1,820,514.8392944335938)" style="cursor: default;"><rect joint-selector="rect" id="v-2900" fill="#111111" rx="3" ry="3" x="-12.521148681640625" y="-6.625713348388672" width="25.727962493896484" height="12.482142448425293"  pointer-events="none" style="display: block;"></rect><text joint-selector="text" id="v-2899" font-size="11.2px" xml:space="preserve" fill="#eeea1e" text-anchor="middle" pointer-events="none" font-family="Tahoma, Verdana, Helvetica, Arial" font-weight="normal"  style="display: block;"><tspan dy="0.3em" >[CLI]</tspan></text></g><g id="v-2896"  label-idx="2" cursor="move" transform="matrix(1,0,0,1,810,550.71533203125)" style="cursor: default;"><rect joint-selector="rect" id="v-2902" fill="#ffffff" rx="3" ry="3" x="0" y="0" width="0" height="0"  display="none"></rect><text joint-selector="text" id="v-2901" fill="#000000" font-size="14" text-anchor="middle" text-vertical-anchor="middle" pointer-events="none"></text></g></g></g><!--z-index:37--><g   id="j_264"  style="opacity: 1;"><path fill="none" cursor="pointer" stroke="transparent" stroke-linecap="round" joint-selector="wrapper" id="v-2916" stroke-width="10" stroke-linejoin="round" d="M 2230 568 L 2570 568"></path><path fill="none" pointer-events="none" joint-selector="line" id="v-2915" stroke="#eeea1e" stroke-width="2" stroke-linejoin="round" stroke-dasharray="" d="M 2230 568 L 2570 568" marker-end="url(#v-2-381586655)"></path><g id="v-2905" ><g id="v-2906"  label-idx="0" cursor="move" transform="matrix(1,0,0,1,2400,557.4000244140625)" style="cursor: default;"><rect joint-selector="rect" id="v-2910" fill="#111111" rx="3" ry="3" x="-28.689424514770508" y="-10.178571701049805" width="58.42410659790039" height="17.474998474121094" pointer-events="none"  style="display: block;"></rect><text joint-selector="text" id="v-2909" font-size="16px" xml:space="preserve" fill="#eeea1e" text-anchor="middle" pointer-events="none" font-family="Tahoma, Verdana, Helvetica, Arial" font-weight="normal"  style="display: block;"><tspan dy="0.3em" >Runs on</tspan></text></g><g id="v-2907"  label-idx="1" cursor="move" transform="matrix(1,0,0,1,2400,581)" style="cursor: default;"><rect joint-selector="rect" id="v-2912" fill="#111111" rx="3" ry="3" x="-21.395172119140625" y="-6.625713348388672" width="43.48149490356445" height="12.482142448425293"  pointer-events="none" style="display: block;"></rect><text joint-selector="text" id="v-2911" font-size="11.2px" xml:space="preserve" fill="#eeea1e" text-anchor="middle" pointer-events="none" font-family="Tahoma, Verdana, Helvetica, Arial" font-weight="normal"  style="display: block;"><tspan dy="0.3em" >[Docker]</tspan></text></g><g id="v-2908"  label-idx="2" cursor="move" transform="matrix(1,0,0,1,2390,586.5999755859375)" style="cursor: default;"><rect joint-selector="rect" id="v-2914" fill="#ffffff" rx="3" ry="3" x="0" y="0" width="0" height="0"  display="none"></rect><text joint-selector="text" id="v-2913" fill="#000000" font-size="14" text-anchor="middle" text-vertical-anchor="middle" pointer-events="none"></text></g></g></g><!--z-index:38--><g   id="j_265"  style="opacity: 1;"><path fill="none" cursor="pointer" stroke="transparent" stroke-linecap="round" joint-selector="wrapper" id="v-2931" stroke-width="10" stroke-linejoin="round" d="M 2005 718 L 2005 908 C 2004.9999999999998 914.7999999999998 2008.333333333333 918.1333333333332 2015 918 L 2390 918 C 2396.6666666666665 918.1333333333332 2400 918.1333333333332 2400 918 L 2400 918 C 2400 918 2403.333333333333 918 2410 918 L 2570 918"></path><path fill="none" pointer-events="none" joint-selector="line" id="v-2930" stroke="#eeea1e" stroke-width="2" stroke-linejoin="round" stroke-dasharray="" d="M 2005 718 L 2005 908 C 2004.9999999999998 914.7999999999998 2008.333333333333 918.1333333333332 2015 918 L 2390 918 C 2396.6666666666665 918.1333333333332 2400 918.1333333333332 2400 918 L 2400 918 C 2400 918 2403.333333333333 918 2410 918 L 2570 918" marker-end="url(#v-2-381586655)"></path><g id="v-2920" ><g id="v-2921"  label-idx="0" cursor="move" transform="matrix(1,0,0,1,2295.556396484375,907.4000244140625)" style="cursor: default;"><rect joint-selector="rect" id="v-2925" fill="#111111" rx="3" ry="3" x="-80.50981903076172" y="-19.7785701751709" width="160.24700927734375" height="39.17142868041992" pointer-events="none"  style="display: block;"></rect><text joint-selector="text" id="v-2924" font-size="16px" xml:space="preserve" fill="#eeea1e" text-anchor="middle" pointer-events="none" font-family="Tahoma, Verdana, Helvetica, Arial" font-weight="normal"  style="display: block;"><tspan dy="-0.3em" >Sends source code for</tspan><tspan dy="1.2em" x="0" >analysis to</tspan></text></g><g id="v-2922"  label-idx="1" cursor="move" transform="matrix(1,0,0,1,2295.556396484375,940.5999755859375)" style="cursor: default;"><rect joint-selector="rect" id="v-2927" fill="#111111" rx="3" ry="3" x="-20.517520904541016" y="-6.625713348388672" width="41.73937225341797" height="12.482142448425293"  pointer-events="none" style="display: block;"></rect><text joint-selector="text" id="v-2926" font-size="11.2px" xml:space="preserve" fill="#eeea1e" text-anchor="middle" pointer-events="none" font-family="Tahoma, Verdana, Helvetica, Arial" font-weight="normal"  style="display: block;"><tspan dy="0.3em" >[HTTPS]</tspan></text></g><g id="v-2923"  label-idx="2" cursor="move" transform="matrix(1,0,0,1,2179.349365234375,946.2000122070312)" style="cursor: default;"><rect joint-selector="rect" id="v-2929" fill="#ffffff" rx="3" ry="3" x="0" y="0" width="0" height="0"  display="none"></rect><text joint-selector="text" id="v-2928" fill="#000000" font-size="14" text-anchor="middle" text-vertical-anchor="middle" pointer-events="none"></text></g></g></g><!--z-index:39--><g   id="j_266"  style="opacity: 1;"><path fill="none" cursor="pointer" stroke="transparent" stroke-linecap="round" joint-selector="wrapper" id="v-2943" stroke-width="10" stroke-linejoin="round" d="M 1440 434 L 1600 434 C 1606.6666666666665 434 1610 434 1610 434 L 1610 434 C 1610 434.4333333333333 1610 438.09999999999997 1610 445 L 1610 558 C 1610 564.6666666666666 1613.3333333333333 568 1620 568 L 1780 568"></path><path fill="none" pointer-events="none" joint-selector="line" id="v-2942" stroke="#eeea1e" stroke-width="2" stroke-linejoin="round" stroke-dasharray="" d="M 1440 434 L 1600 434 C 1606.6666666666665 434 1610 434 1610 434 L 1610 434 C 1610 434.4333333333333 1610 438.09999999999997 1610 445 L 1610 558 C 1610 564.6666666666666 1613.3333333333333 568 1620 568 L 1780 568" marker-end="url(#v-2-381586655)"></path><g id="v-2932" ><g id="v-2933"  label-idx="0" cursor="move" transform="matrix(1,0,0,1,1610,482.15478515625)" style="cursor: default;"><rect joint-selector="rect" id="v-2937" fill="#111111" rx="3" ry="3" x="-27.714256286621094" y="-10.178571701049805" width="55.75606918334961" height="19.97142791748047" pointer-events="none"  style="display: block;"></rect><text joint-selector="text" id="v-2936" font-size="16px" xml:space="preserve" fill="#eeea1e" text-anchor="middle" pointer-events="none" font-family="Tahoma, Verdana, Helvetica, Arial" font-weight="normal"  style="display: block;"><tspan dy="0.3em" >Deploys</tspan></text></g><g id="v-2934"  label-idx="1" cursor="move" transform="matrix(1,0,0,1,1610,505.7547912597656)" style="cursor: default;"><rect joint-selector="rect" id="v-2939" fill="#111111" rx="3" ry="3" x="-16.987415313720703" y="-6.625713348388672" width="34.66205596923828" height="12.482142448425293"  pointer-events="none" style="display: block;"></rect><text joint-selector="text" id="v-2938" font-size="11.2px" xml:space="preserve" fill="#eeea1e" text-anchor="middle" pointer-events="none" font-family="Tahoma, Verdana, Helvetica, Arial" font-weight="normal"  style="display: block;"><tspan dy="0.3em" >[Helm]</tspan></text></g><g id="v-2935"  label-idx="2" cursor="move" transform="matrix(1,0,0,1,1600,517.71533203125)" style="cursor: default;"><rect joint-selector="rect" id="v-2941" fill="#ffffff" rx="3" ry="3" x="-4.547473508864641e-13" y="0" width="0" height="0"  display="none"></rect><text joint-selector="text" id="v-2940" fill="#000000" font-size="14" text-anchor="middle" text-vertical-anchor="middle" pointer-events="none"></text></g></g></g><!--z-index:40--><g   id="j_267"  style="opacity: 1;"><path fill="none" cursor="pointer" stroke="transparent" stroke-linecap="round" joint-selector="wrapper" id="v-2958" stroke-width="10" stroke-linejoin="round" d="M 1440 784 L 1600 784 C 1606.6666666666665 784 1610 784 1610 784 L 1610 784 C 1610 784.4333333333332 1613.3333333333333 784.7666666666665 1620 785 L 1995 785 C 2001.6666666666665 784.7666666666665 2004.9999999999998 781.4333333333332 2005 775 L 2005 718"></path><path fill="none" pointer-events="none" joint-selector="line" id="v-2957" stroke="#eeea1e" stroke-width="2" stroke-linejoin="round" stroke-dasharray="" d="M 1440 784 L 1600 784 C 1606.6666666666665 784 1610 784 1610 784 L 1610 784 C 1610 784.4333333333332 1613.3333333333333 784.7666666666665 1620 785 L 1995 785 C 2001.6666666666665 784.7666666666665 2004.9999999999998 781.4333333333332 2005 775 L 2005 718" marker-end="url(#v-2-381586655)"></path><g id="v-2947" ><g id="v-2948"  label-idx="0" cursor="move" transform="matrix(1,0,0,1,1733.39501953125,774.4000244140625)" style="cursor: default;"><rect joint-selector="rect" id="v-2952" fill="#111111" rx="3" ry="3" x="-86.63387298583984" y="-10.178571701049805" width="174.82774353027344" height="19.97142791748047" pointer-events="none"  style="display: block;"></rect><text joint-selector="text" id="v-2951" font-size="16px" xml:space="preserve" fill="#eeea1e" text-anchor="middle" pointer-events="none" font-family="Tahoma, Verdana, Helvetica, Arial" font-weight="normal"  style="display: block;"><tspan dy="0.3em" >Deploys with live-update</tspan></text></g><g id="v-2949"  label-idx="1" cursor="move" transform="matrix(1,0,0,1,1733.39501953125,798)" style="cursor: default;"><rect joint-selector="rect" id="v-2954" fill="#111111" rx="3" ry="3" x="-17.416488647460938" y="-6.625713348388672" width="35.50847244262695" height="12.482142448425293"  pointer-events="none" style="display: block;"></rect><text joint-selector="text" id="v-2953" font-size="11.2px" xml:space="preserve" fill="#eeea1e" text-anchor="middle" pointer-events="none" font-family="Tahoma, Verdana, Helvetica, Arial" font-weight="normal"  style="display: block;"><tspan dy="0.3em" >[HTTP]</tspan></text></g><g id="v-2950"  label-idx="2" cursor="move" transform="matrix(1,0,0,1,1743.9853515625,803.5999755859375)" style="cursor: default;"><rect joint-selector="rect" id="v-2956" fill="#ffffff" rx="3" ry="3" x="0" y="1.1368683772161603e-13" width="0" height="0"  display="none"></rect><text joint-selector="text" id="v-2955" fill="#000000" font-size="14" text-anchor="middle" text-vertical-anchor="middle" pointer-events="none"></text></g></g></g><!--z-index:41--><g   id="j_268"  style="opacity: 1;"><path fill="none" cursor="pointer" stroke="transparent" stroke-linecap="round" joint-selector="wrapper" id="v-2973" stroke-width="10" stroke-linejoin="round" d="M 1440 1418 L 1600 1418 C 1606.6666666666665 1418 1610 1418 1610 1418 L 1610 1418 C 1610 1418.6333333333332 1613.3333333333333 1418.9666666666665 1620 1419 L 1995 1419 C 2001.6666666666665 1418.9666666666665 2004.9999999999998 1415.6333333333332 2005 1409 L 2005 718"></path><path fill="none" pointer-events="none" joint-selector="line" id="v-2972" stroke="#eeea1e" stroke-width="2" stroke-linejoin="round" stroke-dasharray="" d="M 1440 1418 L 1600 1418 C 1606.6666666666665 1418 1610 1418 1610 1418 L 1610 1418 C 1610 1418.6333333333332 1613.3333333333333 1418.9666666666665 1620 1419 L 1995 1419 C 2001.6666666666665 1418.9666666666665 2004.9999999999998 1415.6333333333332 2005 1409 L 2005 718" marker-end="url(#v-2-381586655)"></path><g id="v-2962" ><g id="v-2963"  label-idx="0" cursor="move" transform="matrix(1,0,0,1,1667.4774169921875,1408.4000244140625)" style="cursor: default;"><rect joint-selector="rect" id="v-2967" fill="#111111" rx="3" ry="3" x="-90.06645965576172" y="-10.178571701049805" width="179.34474182128906" height="17.474998474121094" pointer-events="none"  style="display: block;"></rect><text joint-selector="text" id="v-2966" font-size="16px" xml:space="preserve" fill="#eeea1e" text-anchor="middle" pointer-events="none" font-family="Tahoma, Verdana, Helvetica, Arial" font-weight="normal"  style="display: block;"><tspan dy="0.3em" >Automates workflows for</tspan></text></g><g id="v-2964"  label-idx="1" cursor="move" transform="matrix(1,0,0,1,1667.4774169921875,1432)" style="cursor: default;"><rect joint-selector="rect" id="v-2969" fill="#111111" rx="3" ry="3" x="-12.521148681640625" y="-6.625713348388672" width="25.727962493896484" height="12.482142448425293"  pointer-events="none" style="display: block;"></rect><text joint-selector="text" id="v-2968" font-size="11.2px" xml:space="preserve" fill="#eeea1e" text-anchor="middle" pointer-events="none" font-family="Tahoma, Verdana, Helvetica, Arial" font-weight="normal"  style="display: block;"><tspan dy="0.3em" >[CLI]</tspan></text></g><g id="v-2965"  label-idx="2" cursor="move" transform="matrix(1,0,0,1,1995,1367.80712890625)" style="cursor: default;"><rect joint-selector="rect" id="v-2971" fill="#ffffff" rx="3" ry="3" x="-4.547473508864641e-13" y="-2.2737367544323206e-13" width="0" height="0"  display="none"></rect><text joint-selector="text" id="v-2970" fill="#000000" font-size="14" text-anchor="middle" text-vertical-anchor="middle" pointer-events="none"></text></g></g></g><!--z-index:42--><!--z-index:43--><!--z-index:44--><!--z-index:45--><!--z-index:46--><!--z-index:47--><!--z-index:48--><!--z-index:49--><!--z-index:50--><!--z-index:51--><!--z-index:52--><!--z-index:53--><!--z-index:54--><!--z-index:55--><!--z-index:56--><!--z-index:57--><!--z-index:58--><!--z-index:59--><!--z-index:60--><!--z-index:61--><!--z-index:62--><!--z-index:63--><!--z-index:64--><!--z-index:65--><!--z-index:66--><!--z-index:67--><!--z-index:68--><!--z-index:69--><!--z-index:70--><!--z-index:71--><!--z-index:72--><!--z-index:73--><!--z-index:74--><!--z-index:75--><!--z-index:76--><!--z-index:77--><!--z-index:78--><!--z-index:79--><!--z-index:80--></g><g  style="user-select: none;"></g><g ></g><g  display="none"></g></g></svg>