<svg xmlns="http://www.w3.org/2000/svg" xmlns:xlink="http://www.w3.org/1999/xlink" version="1.1" width="2870.0001028537754" height="1230.6500160694122" style="width: 2870.0001028537754px; height: 1230.6500160694122px; background: #111111" viewBox="149.00000472068788 104.34998927116396 2870.0001028537754 1230.6500160694122"><style id="v-3" type="text/css">        .joint-element .scalable * {            vector-effect: non-scaling-stroke;        }    </style><defs joint-selector="defs"><marker id="v-2-381586655" orient="auto" overflow="visible" markerUnits="userSpaceOnUse"><path id="v-186" stroke="#eeea1e" fill="#eeea1e" transform="rotate(180)" d="M 20 -10 0 0 20 10 Z"></path></marker></defs><g joint-selector="layers"  transform="matrix(1,0,0,1,0,0)"><g  style="pointer-events: none;"></g><g ></g><g  style="user-select: none;"><!--z-index:1--><!--z-index:2--><!--z-index:3--><!--z-index:4--><!--z-index:5--><!--z-index:6--><!--z-index:7--><!--z-index:8--><!--z-index:9--><!--z-index:10--><!--z-index:11--><!--z-index:12--><!--z-index:13--><!--z-index:14--><!--z-index:15--><!--z-index:16--><!--z-index:17--><!--z-index:18--><g   id="j_270"  transform="translate(20,1477)"><g id="v-2976"><text  id="v-2977" font-size="24px" xml:space="preserve" y="0.8em" font-weight="normal" text-anchor="start" fill="#cccccc" pointer-events="none" display="block" font-family="Tahoma, Verdana, Helvetica, Arial"><tspan dy="0"  display="none">Thursday, 6 August 2026 at 20:40 Central European Summer Time</tspan></text></g></g><!--z-index:19--><g   id="j_269"  transform="translate(20,1431)"><g id="v-2974"><text  id="v-2975" font-size="36px" xml:space="preserve" y="0.8em" font-weight="normal" text-anchor="start" fill="#cccccc" pointer-events="none" display="block" font-family="Tahoma, Verdana, Helvetica, Arial"><tspan dy="0"  display="none">System Context View: Local Kubernetes Platform</tspan></text></g></g><!--z-index:20--><g   id="j_271"  transform="translate(199,410)" style=""><g  id="v-2981" style="opacity: 1;"><rect  x="0" y="160" width="400" height="240" rx="70" id="v-2983" stroke-width="3" pointer-events="visiblePainted" fill="#0f766e" stroke="#134e4a" stroke-dasharray="" style="fill: rgb(15, 118, 110); stroke: rgb(19, 78, 74);"></rect><circle  cx="200" cy="88.88888888888889" r="88.88888888888889" id="v-2982" stroke-width="3" pointer-events="visiblePainted" fill="#0f766e" stroke="#134e4a" stroke-dasharray="" style="fill: rgb(15, 118, 110); stroke: rgb(19, 78, 74);"></circle><line  x1="80" y1="266.6666666666667" x2="80" y2="400" id="v-2989" stroke="#134e4a" stroke-width="1" stroke-dasharray="" style="stroke: rgb(19, 78, 74);"></line><line  x1="320" y1="266.6666666666667" x2="320" y2="400" id="v-2990" stroke="#134e4a" stroke-width="1" stroke-dasharray="" style="stroke: rgb(19, 78, 74);"></line><text  id="v-2984" font-size="28px" xml:space="preserve" y="225.5" font-weight="bold" text-anchor="middle" pointer-events="visible" font-family="Tahoma, Verdana, Helvetica, Arial" fill="#dfdada" dominant-baseline="hanging" transform="matrix(1,0,0,1,200,0)" style="fill: rgb(223, 218, 218);"><tspan dy="0" >Developer</tspan></text><text  id="v-2985" font-size="14px" xml:space="preserve" y="261.5" text-anchor="middle" font-family="Tahoma, Verdana, Helvetica, Arial" fill="#dfdada" dominant-baseline="hanging" transform="matrix(1,0,0,1,200,0)" style="display: block; fill: rgb(223, 218, 218);"><tspan dy="0" >[Person]</tspan></text><text  id="v-2986" font-size="20px" xml:space="preserve" y="290.5" text-anchor="middle" font-family="Tahoma, Verdana, Helvetica, Arial" fill="#dfdada" dominant-baseline="hanging" transform="matrix(1,0,0,1,200,0)" style="display: block; fill: rgb(223, 218, 218);"><tspan dy="0" >Engineer running and deploying</tspan><tspan dy="1.2em" x="0" >applications locally.</tspan></text><g  id="v-2987" font-weight="normal" text-anchor="middle" color="#dfdada" transform="matrix(1,0,0,1,197.5,368)" display="none" style="fill: rgb(223, 218, 218);"><g ></g><g ></g><g ></g><g ></g></g><image  id="v-2988"></image></g></g><!--z-index:21--><g   id="j_272"  transform="translate(1729,569)" style=""><g  id="v-2997" style="opacity: 1;"><rect  id="v-2998" rx="20" ry="20" stroke-width="3" pointer-events="visiblePainted" fill="#7738a1" stroke="#5b2b77" stroke-dasharray="" width="450" height="300" style="fill: rgb(119, 56, 161); stroke: rgb(91, 43, 119);"></rect><text  id="v-2999" font-size="28px" xml:space="preserve" y="95.5" font-weight="bold" text-anchor="middle" pointer-events="visible" font-family="Tahoma, Verdana, Helvetica, Arial" fill="#dfdada" dominant-baseline="hanging" transform="matrix(1,0,0,1,225,0)" style="fill: rgb(223, 218, 218);"><tspan dy="0" >Local Kubernetes Platform</tspan></text><text  id="v-3000" font-size="14px" xml:space="preserve" y="131.5" text-anchor="middle" font-family="Tahoma, Verdana, Helvetica, Arial" fill="#dfdada" dominant-baseline="hanging" transform="matrix(1,0,0,1,225,0)" style="display: block; fill: rgb(223, 218, 218);"><tspan dy="0" >[Software System]</tspan></text><text  id="v-3001" font-size="20px" xml:space="preserve" y="160.5" text-anchor="middle" font-family="Tahoma, Verdana, Helvetica, Arial" fill="#dfdada" dominant-baseline="hanging" transform="matrix(1,0,0,1,225,0)" style="display: block; fill: rgb(223, 218, 218);"><tspan dy="0" >Runs FastAPI and Django applications on a</tspan><tspan dy="1.2em" x="0" >local k3d Kubernetes cluster.</tspan></text><g  id="v-3002" color="#dfdada" transform="matrix(1,0,0,1,185,268)" display="none" style="fill: rgb(223, 218, 218);"><g  transform="translate(5 0)"><svg xmlns="http://www.w3.org/2000/svg" width="20" height="20" fill="currentColor" viewBox="0 0 16 16"><path fill-rule="evenodd" d="M6.5 12a5.5 5.5 0 1 0 0-11 5.5 5.5 0 0 0 0 11zM13 6.5a6.5 6.5 0 1 1-13 0 6.5 6.5 0 0 1 13 0z"></path><path d="M10.344 11.742c.03.04.062.078.098.115l3.85 3.85a1 1 0 0 0 1.415-1.414l-3.85-3.85a1.007 1.007 0 0 0-.115-.1 6.538 6.538 0 0 1-1.398 1.4z"></path><path fill-rule="evenodd" d="M6.5 3a.5.5 0 0 1 .5.5V6h2.5a.5.5 0 0 1 0 1H7v2.5a.5.5 0 0 1-1 0V7H3.5a.5.5 0 0 1 0-1H6V3.5a.5.5 0 0 1 .5-.5z"></path></svg></g><g  transform="translate(30 0)"><svg xmlns="http://www.w3.org/2000/svg" width="20" height="20" fill="currentColor" viewBox="0 0 16 16"><path d="M1 2.828c.885-.37 2.154-.769 3.388-.893 1.33-.134 2.458.063 3.112.752v9.746c-.935-.53-2.12-.603-3.213-.493-1.18.12-2.37.461-3.287.811V2.828zm7.5-.141c.654-.689 1.782-.886 3.112-.752 1.234.124 2.503.523 3.388.893v9.923c-.918-.35-2.107-.692-3.287-.81-1.094-.111-2.278-.039-3.213.492V2.687zM8 1.783C7.015.936 5.587.81 4.287.94c-1.514.153-3.042.672-3.994 1.105A.5.5 0 0 0 0 2.5v11a.5.5 0 0 0 .707.455c.882-.4 2.303-.881 3.68-1.02 1.409-.142 2.59.087 3.223.877a.5.5 0 0 0 .78 0c.633-.79 1.814-1.019 3.222-.877 1.378.139 2.8.62 3.681 1.02A.5.5 0 0 0 16 13.5v-11a.5.5 0 0 0-.293-.455c-.952-.433-2.48-.952-3.994-1.105C10.413.809 8.985.936 8 1.783z"></path></svg></g><g  transform="translate(55 0)"><svg xmlns="http://www.w3.org/2000/svg" width="20" height="20" fill="currentColor" viewBox="0 0 16 16"><path d="M5 10.5a.5.5 0 0 1 .5-.5h2a.5.5 0 0 1 0 1h-2a.5.5 0 0 1-.5-.5zm0-2a.5.5 0 0 1 .5-.5h5a.5.5 0 0 1 0 1h-5a.5.5 0 0 1-.5-.5zm0-2a.5.5 0 0 1 .5-.5h5a.5.5 0 0 1 0 1h-5a.5.5 0 0 1-.5-.5zm0-2a.5.5 0 0 1 .5-.5h5a.5.5 0 0 1 0 1h-5a.5.5 0 0 1-.5-.5z"></path><path d="M3 0h10a2 2 0 0 1 2 2v12a2 2 0 0 1-2 2H3a2 2 0 0 1-2-2v-1h1v1a1 1 0 0 0 1 1h10a1 1 0 0 0 1-1V2a1 1 0 0 0-1-1H3a1 1 0 0 0-1 1v1H1V2a2 2 0 0 1 2-2z"></path><path d="M1 5v-.5a.5.5 0 0 1 1 0V5h.5a.5.5 0 0 1 0 1h-2a.5.5 0 0 1 0-1H1zm0 3v-.5a.5.5 0 0 1 1 0V8h.5a.5.5 0 0 1 0 1h-2a.5.5 0 0 1 0-1H1zm0 3v-.5a.5.5 0 0 1 1 0v.5h.5a.5.5 0 0 1 0 1h-2a.5.5 0 0 1 0-1H1z"></path></svg></g><g ></g></g><image  id="v-3003"></image></g></g><!--z-index:22--><g   id="j_273"  transform="translate(2519,394)" style=""><g  id="v-3007" style="opacity: 1;"><rect  id="v-3008" rx="20" ry="20" stroke-width="3" pointer-events="visiblePainted" fill="#7738a1" stroke="#5b2b77" stroke-dasharray="" width="450" height="300" style="fill: rgb(119, 56, 161); stroke: rgb(91, 43, 119);"></rect><text  id="v-3009" font-size="28px" xml:space="preserve" y="107.5" font-weight="bold" text-anchor="middle" pointer-events="visible" font-family="Tahoma, Verdana, Helvetica, Arial" fill="#dfdada" dominant-baseline="hanging" transform="matrix(1,0,0,1,225,0)" style="fill: rgb(223, 218, 218);"><tspan dy="0" >k3d Cluster</tspan></text><text  id="v-3010" font-size="14px" xml:space="preserve" y="143.5" text-anchor="middle" font-family="Tahoma, Verdana, Helvetica, Arial" fill="#dfdada" dominant-baseline="hanging" transform="matrix(1,0,0,1,225,0)" style="display: block; fill: rgb(223, 218, 218);"><tspan dy="0" >[Software System]</tspan></text><text  id="v-3011" font-size="20px" xml:space="preserve" y="172.5" text-anchor="middle" font-family="Tahoma, Verdana, Helvetica, Arial" fill="#dfdada" dominant-baseline="hanging" transform="matrix(1,0,0,1,225,0)" style="display: block; fill: rgb(223, 218, 218);"><tspan dy="0" >Local Kubernetes runtime environment.</tspan></text><g  id="v-3012" color="#dfdada" transform="matrix(1,0,0,1,222.5,268)" display="none" style="fill: rgb(223, 218, 218);"><g ></g><g ></g><g ></g><g ></g></g><image  id="v-3013"></image></g></g><!--z-index:23--><g   id="j_274"  transform="translate(939,285)" style=""><g  id="v-3017" style="opacity: 1;"><rect  id="v-3018" rx="20" ry="20" stroke-width="3" pointer-events="visiblePainted" fill="#7738a1" stroke="#5b2b77" stroke-dasharray="" width="450" height="300" style="fill: rgb(119, 56, 161); stroke: rgb(91, 43, 119);"></rect><text  id="v-3019" font-size="28px" xml:space="preserve" y="95.5" font-weight="bold" text-anchor="middle" pointer-events="visible" font-family="Tahoma, Verdana, Helvetica, Arial" fill="#dfdada" dominant-baseline="hanging" transform="matrix(1,0,0,1,225,0)" style="fill: rgb(223, 218, 218);"><tspan dy="0" >ArgoCD</tspan></text><text  id="v-3020" font-size="14px" xml:space="preserve" y="131.5" text-anchor="middle" font-family="Tahoma, Verdana, Helvetica, Arial" fill="#dfdada" dominant-baseline="hanging" transform="matrix(1,0,0,1,225,0)" style="display: block; fill: rgb(223, 218, 218);"><tspan dy="0" >[Software System]</tspan></text><text  id="v-3021" font-size="20px" xml:space="preserve" y="160.5" text-anchor="middle" font-family="Tahoma, Verdana, Helvetica, Arial" fill="#dfdada" dominant-baseline="hanging" transform="matrix(1,0,0,1,225,0)" style="display: block; fill: rgb(223, 218, 218);"><tspan dy="0" >Continuously deploys the platform from Git</tspan><tspan dy="1.2em" x="0" >using GitOps.</tspan></text><g  id="v-3022" color="#dfdada" transform="matrix(1,0,0,1,222.5,268)" display="none" style="fill: rgb(223, 218, 218);"><g ></g><g ></g><g ></g><g ></g></g><image  id="v-3023"></image></g></g><!--z-index:24--><g   id="j_275"  transform="translate(2519,744)" style=""><g  id="v-3027" style="opacity: 1;"><rect  id="v-3028" rx="20" ry="20" stroke-width="3" pointer-events="visiblePainted" fill="#7738a1" stroke="#5b2b77" stroke-dasharray="" width="450" height="300" style="fill: rgb(119, 56, 161); stroke: rgb(91, 43, 119);"></rect><text  id="v-3029" font-size="28px" xml:space="preserve" y="107.5" font-weight="bold" text-anchor="middle" pointer-events="visible" font-family="Tahoma, Verdana, Helvetica, Arial" fill="#dfdada" dominant-baseline="hanging" transform="matrix(1,0,0,1,225,0)" style="fill: rgb(223, 218, 218);"><tspan dy="0" >SonarQube</tspan></text><text  id="v-3030" font-size="14px" xml:space="preserve" y="143.5" text-anchor="middle" font-family="Tahoma, Verdana, Helvetica, Arial" fill="#dfdada" dominant-baseline="hanging" transform="matrix(1,0,0,1,225,0)" style="display: block; fill: rgb(223, 218, 218);"><tspan dy="0" >[Software System]</tspan></text><text  id="v-3031" font-size="20px" xml:space="preserve" y="172.5" text-anchor="middle" font-family="Tahoma, Verdana, Helvetica, Arial" fill="#dfdada" dominant-baseline="hanging" transform="matrix(1,0,0,1,225,0)" style="display: block; fill: rgb(223, 218, 218);"><tspan dy="0" >Analyses code quality and test coverage.</tspan></text><g  id="v-3032" color="#dfdada" transform="matrix(1,0,0,1,222.5,268)" display="none" style="fill: rgb(223, 218, 218);"><g ></g><g ></g><g ></g><g ></g></g><image  id="v-3033"></image></g></g><!--z-index:25--><g   id="j_276"  transform="translate(939,635)" style=""><g  id="v-3037" style="opacity: 1;"><rect  id="v-3038" rx="20" ry="20" stroke-width="3" pointer-events="visiblePainted" fill="#7738a1" stroke="#5b2b77" stroke-dasharray="" width="450" height="300" style="fill: rgb(119, 56, 161); stroke: rgb(91, 43, 119);"></rect><text  id="v-3039" font-size="28px" xml:space="preserve" y="95.5" font-weight="bold" text-anchor="middle" pointer-events="visible" font-family="Tahoma, Verdana, Helvetica, Arial" fill="#dfdada" dominant-baseline="hanging" transform="matrix(1,0,0,1,225,0)" style="fill: rgb(223, 218, 218);"><tspan dy="0" >Tilt</tspan></text><text  id="v-3040" font-size="14px" xml:space="preserve" y="131.5" text-anchor="middle" font-family="Tahoma, Verdana, Helvetica, Arial" fill="#dfdada" dominant-baseline="hanging" transform="matrix(1,0,0,1,225,0)" style="display: block; fill: rgb(223, 218, 218);"><tspan dy="0" >[Software System]</tspan></text><text  id="v-3041" font-size="20px" xml:space="preserve" y="160.5" text-anchor="middle" font-family="Tahoma, Verdana, Helvetica, Arial" fill="#dfdada" dominant-baseline="hanging" transform="matrix(1,0,0,1,225,0)" style="display: block; fill: rgb(223, 218, 218);"><tspan dy="0" >Local development environment</tspan><tspan dy="1.2em" x="0" >orchestrator for live-update deployments.</tspan></text><g  id="v-3042" color="#dfdada" transform="matrix(1,0,0,1,222.5,268)" display="none" style="fill: rgb(223, 218, 218);"><g ></g><g ></g><g ></g><g ></g></g><image  id="v-3043"></image></g></g><!--z-index:26--><g   id="j_277"  transform="translate(939,985)" style=""><g  id="v-3047" style="opacity: 1;"><rect  id="v-3048" rx="20" ry="20" stroke-width="3" pointer-events="visiblePainted" fill="#7738a1" stroke="#5b2b77" stroke-dasharray="" width="450" height="300" style="fill: rgb(119, 56, 161); stroke: rgb(91, 43, 119);"></rect><text  id="v-3049" font-size="28px" xml:space="preserve" y="95.5" font-weight="bold" text-anchor="middle" pointer-events="visible" font-family="Tahoma, Verdana, Helvetica, Arial" fill="#dfdada" dominant-baseline="hanging" transform="matrix(1,0,0,1,225,0)" style="fill: rgb(223, 218, 218);"><tspan dy="0" >Task</tspan></text><text  id="v-3050" font-size="14px" xml:space="preserve" y="131.5" text-anchor="middle" font-family="Tahoma, Verdana, Helvetica, Arial" fill="#dfdada" dominant-baseline="hanging" transform="matrix(1,0,0,1,225,0)" style="display: block; fill: rgb(223, 218, 218);"><tspan dy="0" >[Software System]</tspan></text><text  id="v-3051" font-size="20px" xml:space="preserve" y="160.5" text-anchor="middle" font-family="Tahoma, Verdana, Helvetica, Arial" fill="#dfdada" dominant-baseline="hanging" transform="matrix(1,0,0,1,225,0)" style="display: block; fill: rgb(223, 218, 218);"><tspan dy="0" >Cross-platform task runner for automation</tspan><tspan dy="1.2em" x="0" >scripts.</tspan></text><g  id="v-3052" color="#dfdada" transform="matrix(1,0,0,1,222.5,268)" display="none" style="fill: rgb(223, 218, 218);"><g ></g><g ></g><g ></g><g ></g></g><image  id="v-3053"></image></g></g><!--z-index:27--><g   id="j_278"  style="opacity: 1;"><path fill="none" cursor="pointer" stroke="transparent" stroke-linecap="round" joint-selector="wrapper" id="v-3071" stroke-width="10" stroke-linejoin="round" d="M 399 410 L 399 186 C 399 179.06666666666666 402.3333333333333 175.73333333333335 409 176 L 759 176 C 765.6666666666666 175.73333333333335 772.3333333333333 175.73333333333335 779 176 L 1549 176 C 1555.6666666666665 175.73333333333335 1562.3333333333333 175.73333333333335 1569 176 L 1944 176 C 1950.6666666666665 175.73333333333335 1953.9999999999998 179.06666666666666 1954 186 L 1954 569"></path><path fill="none" pointer-events="none" joint-selector="line" id="v-3070" stroke="#eeea1e" stroke-width="2" stroke-linejoin="round" stroke-dasharray="" d="M 399 410 L 399 186 C 399 179.06666666666666 402.3333333333333 175.73333333333335 409 176 L 759 176 C 765.6666666666666 175.73333333333335 772.3333333333333 175.73333333333335 779 176 L 1549 176 C 1555.6666666666665 175.73333333333335 1562.3333333333333 175.73333333333335 1569 176 L 1944 176 C 1950.6666666666665 175.73333333333335 1953.9999999999998 179.06666666666666 1954 186 L 1954 569" marker-end="url(#v-2-381586655)"></path><g id="v-3060" ><g id="v-3061"  label-idx="0" cursor="move" transform="matrix(1,0,0,1,1133.4837646484375,165.39999389648438)" style="cursor: default;"><rect joint-selector="rect" id="v-3065" fill="#111111" rx="3" ry="3" x="-89.5586929321289" y="-11.050000190734863" width="181.05044555664062" height="19.8125" pointer-events="none"  style="display: block;"></rect><text joint-selector="text" id="v-3064" font-size="16px" xml:space="preserve" fill="#eeea1e" text-anchor="middle" pointer-events="none" font-family="Tahoma, Verdana, Helvetica, Arial" font-weight="normal"  style="display: block;"><tspan dy="0.3em" >Develops and runs locally</tspan></text></g><g id="v-3062"  label-idx="1" cursor="move" transform="matrix(1,0,0,1,1133.4837646484375,189)" style="cursor: default;"><rect joint-selector="rect" id="v-3067" fill="#111111" rx="3" ry="3" x="-92.1900405883789" y="-8.52750015258789" width="186.0214080810547" height="15.850000381469727"  pointer-events="none" style="display: block;"></rect><text joint-selector="text" id="v-3066" font-size="11.2px" xml:space="preserve" fill="#eeea1e" text-anchor="middle" pointer-events="none" font-family="Tahoma, Verdana, Helvetica, Arial" font-weight="normal"  style="display: block;"><tspan dy="0.3em" >[Task, Tilt, kubectl, Kustomize, Helm]</tspan></text></g><g id="v-3063"  label-idx="2" cursor="move" transform="matrix(1,0,0,1,1246,194.60000610351562)" style="cursor: default;"><rect joint-selector="rect" id="v-3069" fill="#ffffff" rx="3" ry="3" x="2.2737367544323206e-13" y="2.842170943040401e-14" width="0" height="0"  display="none"></rect><text joint-selector="text" id="v-3068" fill="#000000" font-size="14" text-anchor="middle" text-vertical-anchor="middle" pointer-events="none"></text></g></g></g><!--z-index:28--><g   id="j_279"  style="opacity: 1;"><path fill="none" cursor="pointer" stroke="transparent" stroke-linecap="round" joint-selector="wrapper" id="v-3086" stroke-width="10" stroke-linejoin="round" d="M 599 610 L 759 610 C 765.6666666666666 610 769 613.3333333333333 769 620 L 769 776 C 769 782.4333333333333 769 789.0999999999999 769 796 L 769 945 C 769 951.6666666666666 772.3333333333333 955 779 955 L 1154 955 C 1160.6666666666665 955 1164 951.6666666666666 1164 945 L 1164 935"></path><path fill="none" pointer-events="none" joint-selector="line" id="v-3085" stroke="#eeea1e" stroke-width="2" stroke-linejoin="round" stroke-dasharray="" d="M 599 610 L 759 610 C 765.6666666666666 610 769 613.3333333333333 769 620 L 769 776 C 769 782.4333333333333 769 789.0999999999999 769 796 L 769 945 C 769 951.6666666666666 772.3333333333333 955 779 955 L 1154 955 C 1160.6666666666665 955 1164 951.6666666666666 1164 945 L 1164 935" marker-end="url(#v-2-381586655)"></path><g id="v-3075" ><g id="v-3076"  label-idx="0" cursor="move" transform="matrix(1,0,0,1,769,915.6790771484375)" style="cursor: default;"><rect joint-selector="rect" id="v-3080" fill="#111111" rx="3" ry="3" x="-79.0333023071289" y="-20.649999618530273" width="159.5500946044922" height="39.01250076293945" pointer-events="none"  style="display: block;"></rect><text joint-selector="text" id="v-3079" font-size="16px" xml:space="preserve" fill="#eeea1e" text-anchor="middle" pointer-events="none" font-family="Tahoma, Verdana, Helvetica, Arial" font-weight="normal"  style="display: block;"><tspan dy="-0.3em" >Configures live-update</tspan><tspan dy="1.2em" x="0" >deployments</tspan></text></g><g id="v-3077"  label-idx="1" cursor="move" transform="matrix(1,0,0,1,769,948.8790283203125)" style="cursor: default;"><rect joint-selector="rect" id="v-3082" fill="#111111" rx="3" ry="3" x="-12.522119522094727" y="-8.52750015258789" width="26.697568893432617" height="15.850000381469727"  pointer-events="none" style="display: block;"></rect><text joint-selector="text" id="v-3081" font-size="11.2px" xml:space="preserve" fill="#eeea1e" text-anchor="middle" pointer-events="none" font-family="Tahoma, Verdana, Helvetica, Arial" font-weight="normal"  style="display: block;"><tspan dy="0.3em" >[CLI]</tspan></text></g><g id="v-3078"  label-idx="2" cursor="move" transform="matrix(1,0,0,1,759,931.3153076171875)" style="cursor: default;"><rect joint-selector="rect" id="v-3084" fill="#ffffff" rx="3" ry="3" x="0" y="0" width="0" height="0"  display="none"></rect><text joint-selector="text" id="v-3083" fill="#000000" font-size="14" text-anchor="middle" text-vertical-anchor="middle" pointer-events="none"></text></g></g></g><!--z-index:29--><g   id="j_280"  style="opacity: 1;"><path fill="none" cursor="pointer" stroke="transparent" stroke-linecap="round" joint-selector="wrapper" id="v-3101" stroke-width="10" stroke-linejoin="round" d="M 399 810 L 399 1126 C 399 1132.4333333333334 402.3333333333333 1135.7666666666667 409 1136 L 759 1136 C 765.6666666666666 1135.7666666666667 769 1135.4333333333334 769 1135 L 769 1135 C 769 1135 772.3333333333333 1135 779 1135 L 939 1135"></path><path fill="none" pointer-events="none" joint-selector="line" id="v-3100" stroke="#eeea1e" stroke-width="2" stroke-linejoin="round" stroke-dasharray="" d="M 399 810 L 399 1126 C 399 1132.4333333333334 402.3333333333333 1135.7666666666667 409 1136 L 759 1136 C 765.6666666666666 1135.7666666666667 769 1135.4333333333334 769 1135 L 769 1135 C 769 1135 772.3333333333333 1135 779 1135 L 939 1135" marker-end="url(#v-2-381586655)"></path><g id="v-3090" ><g id="v-3091"  label-idx="0" cursor="move" transform="matrix(1,0,0,1,680.887451171875,1125.4000244140625)" style="cursor: default;"><rect joint-selector="rect" id="v-3095" fill="#111111" rx="3" ry="3" x="-73.5384292602539" y="-20.649999618530273" width="148.04263305664062" height="39.01250076293945" pointer-events="none"  style="display: block;"></rect><text joint-selector="text" id="v-3094" font-size="16px" xml:space="preserve" fill="#eeea1e" text-anchor="middle" pointer-events="none" font-family="Tahoma, Verdana, Helvetica, Arial" font-weight="normal"  style="display: block;"><tspan dy="-0.3em" >Executes automation</tspan><tspan dy="1.2em" x="0" >workflows</tspan></text></g><g id="v-3092"  label-idx="1" cursor="move" transform="matrix(1,0,0,1,680.887451171875,1158.5999755859375)" style="cursor: default;"><rect joint-selector="rect" id="v-3097" fill="#111111" rx="3" ry="3" x="-12.522119522094727" y="-8.52750015258789" width="26.697568893432617" height="15.850000381469727"  pointer-events="none" style="display: block;"></rect><text joint-selector="text" id="v-3096" font-size="11.2px" xml:space="preserve" fill="#eeea1e" text-anchor="middle" pointer-events="none" font-family="Tahoma, Verdana, Helvetica, Arial" font-weight="normal"  style="display: block;"><tspan dy="0.3em" >[CLI]</tspan></text></g><g id="v-3093"  label-idx="2" cursor="move" transform="matrix(1,0,0,1,498.0146179199219,1164.199951171875)" style="cursor: default;"><rect joint-selector="rect" id="v-3099" fill="#ffffff" rx="3" ry="3" x="0" y="0" width="0" height="0"  display="none"></rect><text joint-selector="text" id="v-3098" fill="#000000" font-size="14" text-anchor="middle" text-vertical-anchor="middle" pointer-events="none"></text></g></g></g><!--z-index:30--><g   id="j_281"  style="opacity: 1;"><path fill="none" cursor="pointer" stroke="transparent" stroke-linecap="round" joint-selector="wrapper" id="v-3116" stroke-width="10" stroke-linejoin="round" d="M 599 610 L 759 610 C 765.6666666666666 610 769 606.6666666666666 769 600 L 769 446 C 769 439.1 769 435.4333333333334 769 435 L 769 435 C 769 435 772.3333333333333 435 779 435 L 939 435"></path><path fill="none" pointer-events="none" joint-selector="line" id="v-3115" stroke="#eeea1e" stroke-width="2" stroke-linejoin="round" stroke-dasharray="" d="M 599 610 L 759 610 C 765.6666666666666 610 769 606.6666666666666 769 600 L 769 446 C 769 439.1 769 435.4333333333334 769 435 L 769 435 C 769 435 772.3333333333333 435 779 435 L 939 435" marker-end="url(#v-2-381586655)"></path><g id="v-3105" ><g id="v-3106"  label-idx="0" cursor="move" transform="matrix(1,0,0,1,769,497.125244140625)" style="cursor: default;"><rect joint-selector="rect" id="v-3110" fill="#111111" rx="3" ry="3" x="-90.471923828125" y="-11.050000190734863" width="181.71578979492188" height="19.8125" pointer-events="none"  style="display: block;"></rect><text joint-selector="text" id="v-3109" font-size="16px" xml:space="preserve" fill="#eeea1e" text-anchor="middle" pointer-events="none" font-family="Tahoma, Verdana, Helvetica, Arial" font-weight="normal"  style="display: block;"><tspan dy="0.3em" >Manages GitOps pipelines</tspan></text></g><g id="v-3107"  label-idx="1" cursor="move" transform="matrix(1,0,0,1,769,520.7252197265625)" style="cursor: default;"><rect joint-selector="rect" id="v-3112" fill="#111111" rx="3" ry="3" x="-12.522119522094727" y="-8.52750015258789" width="26.697568893432617" height="15.850000381469727"  pointer-events="none" style="display: block;"></rect><text joint-selector="text" id="v-3111" font-size="11.2px" xml:space="preserve" fill="#eeea1e" text-anchor="middle" pointer-events="none" font-family="Tahoma, Verdana, Helvetica, Arial" font-weight="normal"  style="display: block;"><tspan dy="0.3em" >[CLI]</tspan></text></g><g id="v-3108"  label-idx="2" cursor="move" transform="matrix(1,0,0,1,759,539.21533203125)" style="cursor: default;"><rect joint-selector="rect" id="v-3114" fill="#ffffff" rx="3" ry="3" x="0" y="0" width="0" height="0"  display="none"></rect><text joint-selector="text" id="v-3113" fill="#000000" font-size="14" text-anchor="middle" text-vertical-anchor="middle" pointer-events="none"></text></g></g></g><!--z-index:31--><g   id="j_282"  style="opacity: 1;"><path fill="none" cursor="pointer" stroke="transparent" stroke-linecap="round" joint-selector="wrapper" id="v-3128" stroke-width="10" stroke-linejoin="round" d="M 1954 569 L 1954 555 C 1953.9999999999998 548.3 1957.333333333333 544.9666666666667 1964 545 L 2339 545 C 2345.6666666666665 544.9666666666667 2349 544.6333333333333 2349 544 L 2349 544 C 2349 544 2352.333333333333 544 2359 544 L 2519 544"></path><path fill="none" pointer-events="none" joint-selector="line" id="v-3127" stroke="#eeea1e" stroke-width="2" stroke-linejoin="round" stroke-dasharray="" d="M 1954 569 L 1954 555 C 1953.9999999999998 548.3 1957.333333333333 544.9666666666667 1964 545 L 2339 545 C 2345.6666666666665 544.9666666666667 2349 544.6333333333333 2349 544 L 2349 544 C 2349 544 2352.333333333333 544 2359 544 L 2519 544" marker-end="url(#v-2-381586655)"></path><g id="v-3117" ><g id="v-3118"  label-idx="0" cursor="move" transform="matrix(1,0,0,1,2239.583251953125,534.4000244140625)" style="cursor: default;"><rect joint-selector="rect" id="v-3122" fill="#111111" rx="3" ry="3" x="-28.697168350219727" y="-11.050000190734863" width="58.379703521728516" height="19.8125" pointer-events="none"  style="display: block;"></rect><text joint-selector="text" id="v-3121" font-size="16px" xml:space="preserve" fill="#eeea1e" text-anchor="middle" pointer-events="none" font-family="Tahoma, Verdana, Helvetica, Arial" font-weight="normal"  style="display: block;"><tspan dy="0.3em" >Runs on</tspan></text></g><g id="v-3119"  label-idx="1" cursor="move" transform="matrix(1,0,0,1,2239.583251953125,558)" style="cursor: default;"><rect joint-selector="rect" id="v-3124" fill="#111111" rx="3" ry="3" x="-21.406787872314453" y="-8.52750015258789" width="44.46702575683594" height="15.850000381469727"  pointer-events="none" style="display: block;"></rect><text joint-selector="text" id="v-3123" font-size="11.2px" xml:space="preserve" fill="#eeea1e" text-anchor="middle" pointer-events="none" font-family="Tahoma, Verdana, Helvetica, Arial" font-weight="normal"  style="display: block;"><tspan dy="0.3em" >[Docker]</tspan></text></g><g id="v-3120"  label-idx="2" cursor="move" transform="matrix(1,0,0,1,2216.476318359375,563.5999755859375)" style="cursor: default;"><rect joint-selector="rect" id="v-3126" fill="#ffffff" rx="3" ry="3" x="0" y="0" width="0" height="0"  display="none"></rect><text joint-selector="text" id="v-3125" fill="#000000" font-size="14" text-anchor="middle" text-vertical-anchor="middle" pointer-events="none"></text></g></g></g><!--z-index:32--><g   id="j_283"  style="opacity: 1;"><path fill="none" cursor="pointer" stroke="transparent" stroke-linecap="round" joint-selector="wrapper" id="v-3143" stroke-width="10" stroke-linejoin="round" d="M 1954 869 L 1954 885 C 1953.9999999999998 891.6333333333333 1957.333333333333 894.9666666666667 1964 895 L 2339 895 C 2345.6666666666665 894.9666666666667 2349 894.6333333333333 2349 894 L 2349 894 C 2349 894 2352.333333333333 894 2359 894 L 2519 894"></path><path fill="none" pointer-events="none" joint-selector="line" id="v-3142" stroke="#eeea1e" stroke-width="2" stroke-linejoin="round" stroke-dasharray="" d="M 1954 869 L 1954 885 C 1953.9999999999998 891.6333333333333 1957.333333333333 894.9666666666667 1964 895 L 2339 895 C 2345.6666666666665 894.9666666666667 2349 894.6333333333333 2349 894 L 2349 894 C 2349 894 2352.333333333333 894 2359 894 L 2519 894" marker-end="url(#v-2-381586655)"></path><g id="v-3132" ><g id="v-3133"  label-idx="0" cursor="move" transform="matrix(1,0,0,1,2238.64599609375,884.4000244140625)" style="cursor: default;"><rect joint-selector="rect" id="v-3137" fill="#111111" rx="3" ry="3" x="-78.0736312866211" y="-20.649999618530273" width="158.29483032226562" height="39.01250076293945" pointer-events="none"  style="display: block;"></rect><text joint-selector="text" id="v-3136" font-size="16px" xml:space="preserve" fill="#eeea1e" text-anchor="middle" pointer-events="none" font-family="Tahoma, Verdana, Helvetica, Arial" font-weight="normal"  style="display: block;"><tspan dy="-0.3em" >Sends source code for</tspan><tspan dy="1.2em" x="0" >analysis to</tspan></text></g><g id="v-3134"  label-idx="1" cursor="move" transform="matrix(1,0,0,1,2238.64599609375,917.5999755859375)" style="cursor: default;"><rect joint-selector="rect" id="v-3139" fill="#111111" rx="3" ry="3" x="-20.53999137878418" y="-8.52750015258789" width="42.723365783691406" height="15.850000381469727"  pointer-events="none" style="display: block;"></rect><text joint-selector="text" id="v-3138" font-size="11.2px" xml:space="preserve" fill="#eeea1e" text-anchor="middle" pointer-events="none" font-family="Tahoma, Verdana, Helvetica, Arial" font-weight="normal"  style="display: block;"><tspan dy="0.3em" >[HTTPS]</tspan></text></g><g id="v-3135"  label-idx="2" cursor="move" transform="matrix(1,0,0,1,2215.495361328125,923.2000122070312)" style="cursor: default;"><rect joint-selector="rect" id="v-3141" fill="#ffffff" rx="3" ry="3" x="4.547473508864641e-13" y="0" width="0" height="0"  display="none"></rect><text joint-selector="text" id="v-3140" fill="#000000" font-size="14" text-anchor="middle" text-vertical-anchor="middle" pointer-events="none"></text></g></g></g><!--z-index:33--><g   id="j_284"  style="opacity: 1;"><path fill="none" cursor="pointer" stroke="transparent" stroke-linecap="round" joint-selector="wrapper" id="v-3155" stroke-width="10" stroke-linejoin="round" d="M 1389 435 L 1549 435 C 1555.6666666666665 435 1559 435 1559 435 L 1559 435 C 1559 435.4333333333334 1559 439.1 1559 446 L 1559 709 C 1559 715.6666666666666 1562.3333333333333 719 1569 719 L 1729 719"></path><path fill="none" pointer-events="none" joint-selector="line" id="v-3154" stroke="#eeea1e" stroke-width="2" stroke-linejoin="round" stroke-dasharray="" d="M 1389 435 L 1549 435 C 1555.6666666666665 435 1559 435 1559 435 L 1559 435 C 1559 435.4333333333334 1559 439.1 1559 446 L 1559 709 C 1559 715.6666666666666 1562.3333333333333 719 1569 719 L 1729 719" marker-end="url(#v-2-381586655)"></path><g id="v-3144" ><g id="v-3145"  label-idx="0" cursor="move" transform="matrix(1,0,0,1,1559,518.0645751953125)" style="cursor: default;"><rect joint-selector="rect" id="v-3149" fill="#111111" rx="3" ry="3" x="-27.722023010253906" y="-11.050000190734863" width="56.226646423339844" height="19.8125" pointer-events="none"  style="display: block;"></rect><text joint-selector="text" id="v-3148" font-size="16px" xml:space="preserve" fill="#eeea1e" text-anchor="middle" pointer-events="none" font-family="Tahoma, Verdana, Helvetica, Arial" font-weight="normal"  style="display: block;"><tspan dy="0.3em" >Deploys</tspan></text></g><g id="v-3146"  label-idx="1" cursor="move" transform="matrix(1,0,0,1,1559,541.66455078125)" style="cursor: default;"><rect joint-selector="rect" id="v-3151" fill="#111111" rx="3" ry="3" x="-16.995410919189453" y="-8.52750015258789" width="35.63967514038086" height="15.850000381469727"  pointer-events="none" style="display: block;"></rect><text joint-selector="text" id="v-3150" font-size="11.2px" xml:space="preserve" fill="#eeea1e" text-anchor="middle" pointer-events="none" font-family="Tahoma, Verdana, Helvetica, Arial" font-weight="normal"  style="display: block;"><tspan dy="0.3em" >[Helm]</tspan></text></g><g id="v-3147"  label-idx="2" cursor="move" transform="matrix(1,0,0,1,1549,593.71533203125)" style="cursor: default;"><rect joint-selector="rect" id="v-3153" fill="#ffffff" rx="3" ry="3" x="2.2737367544323206e-13" y="0" width="0" height="0"  display="none"></rect><text joint-selector="text" id="v-3152" fill="#000000" font-size="14" text-anchor="middle" text-vertical-anchor="middle" pointer-events="none"></text></g></g></g><!--z-index:34--><g   id="j_285"  style="opacity: 1;"><path fill="none" cursor="pointer" stroke="transparent" stroke-linecap="round" joint-selector="wrapper" id="v-3170" stroke-width="10" stroke-linejoin="round" d="M 1389 785 L 1549 785 C 1555.6666666666665 784.9999999999999 1559 784.9999999999999 1559 785 L 1559 785 C 1559 785.4333333333333 1559 789.0999999999999 1559 796 L 1559 879 C 1559 885.6666666666666 1562.3333333333333 889 1569 889 L 1944 889 C 1950.6666666666665 889 1953.9999999999998 885.6666666666666 1954 879 L 1954 869"></path><path fill="none" pointer-events="none" joint-selector="line" id="v-3169" stroke="#eeea1e" stroke-width="2" stroke-linejoin="round" stroke-dasharray="" d="M 1389 785 L 1549 785 C 1555.6666666666665 784.9999999999999 1559 784.9999999999999 1559 785 L 1559 785 C 1559 785.4333333333333 1559 789.0999999999999 1559 796 L 1559 879 C 1559 885.6666666666666 1562.3333333333333 889 1569 889 L 1944 889 C 1950.6666666666665 889 1953.9999999999998 885.6666666666666 1954 879 L 1954 869" marker-end="url(#v-2-381586655)"></path><g id="v-3159" ><g id="v-3160"  label-idx="0" cursor="move" transform="matrix(1,0,0,1,1627.1754150390625,878.4000244140625)" style="cursor: default;"><rect joint-selector="rect" id="v-3164" fill="#111111" rx="3" ry="3" x="-86.6951675415039" y="-11.050000190734863" width="174.86729431152344" height="19.8125" pointer-events="none"  style="display: block;"></rect><text joint-selector="text" id="v-3163" font-size="16px" xml:space="preserve" fill="#eeea1e" text-anchor="middle" pointer-events="none" font-family="Tahoma, Verdana, Helvetica, Arial" font-weight="normal"  style="display: block;"><tspan dy="0.3em" >Deploys with live-update</tspan></text></g><g id="v-3161"  label-idx="1" cursor="move" transform="matrix(1,0,0,1,1627.1754150390625,902)" style="cursor: default;"><rect joint-selector="rect" id="v-3166" fill="#111111" rx="3" ry="3" x="-17.428808212280273" y="-8.52750015258789" width="36.486854553222656" height="15.850000381469727"  pointer-events="none" style="display: block;"></rect><text joint-selector="text" id="v-3165" font-size="11.2px" xml:space="preserve" fill="#eeea1e" text-anchor="middle" pointer-events="none" font-family="Tahoma, Verdana, Helvetica, Arial" font-weight="normal"  style="display: block;"><tspan dy="0.3em" >[HTTP]</tspan></text></g><g id="v-3162"  label-idx="2" cursor="move" transform="matrix(1,0,0,1,1619.5,907.5999755859375)" style="cursor: default;"><rect joint-selector="rect" id="v-3168" fill="#ffffff" rx="3" ry="3" x="0" y="1.1368683772161603e-13" width="0" height="0"  display="none"></rect><text joint-selector="text" id="v-3167" fill="#000000" font-size="14" text-anchor="middle" text-vertical-anchor="middle" pointer-events="none"></text></g></g></g><!--z-index:35--><g   id="j_286"  style="opacity: 1;"><path fill="none" cursor="pointer" stroke="transparent" stroke-linecap="round" joint-selector="wrapper" id="v-3185" stroke-width="10" stroke-linejoin="round" d="M 1389 1135 L 1549 1135 C 1555.6666666666665 1135 1559 1135 1559 1135 L 1559 1135 C 1559 1135.4333333333334 1562.3333333333333 1135.7666666666667 1569 1136 L 1944 1136 C 1950.6666666666665 1135.7666666666667 1953.9999999999998 1132.4333333333334 1954 1126 L 1954 869"></path><path fill="none" pointer-events="none" joint-selector="line" id="v-3184" stroke="#eeea1e" stroke-width="2" stroke-linejoin="round" stroke-dasharray="" d="M 1389 1135 L 1549 1135 C 1555.6666666666665 1135 1559 1135 1559 1135 L 1559 1135 C 1559 1135.4333333333334 1562.3333333333333 1135.7666666666667 1569 1136 L 1944 1136 C 1950.6666666666665 1135.7666666666667 1953.9999999999998 1132.4333333333334 1954 1126 L 1954 869" marker-end="url(#v-2-381586655)"></path><g id="v-3174" ><g id="v-3175"  label-idx="0" cursor="move" transform="matrix(1,0,0,1,1651.3001708984375,1125.4000244140625)" style="cursor: default;"><rect joint-selector="rect" id="v-3179" fill="#111111" rx="3" ry="3" x="-89.6051254272461" y="-11.050000190734863" width="179.38754272460938" height="19.8125" pointer-events="none"  style="display: block;"></rect><text joint-selector="text" id="v-3178" font-size="16px" xml:space="preserve" fill="#eeea1e" text-anchor="middle" pointer-events="none" font-family="Tahoma, Verdana, Helvetica, Arial" font-weight="normal"  style="display: block;"><tspan dy="0.3em" >Automates workflows for</tspan></text></g><g id="v-3176"  label-idx="1" cursor="move" transform="matrix(1,0,0,1,1651.3001708984375,1149)" style="cursor: default;"><rect joint-selector="rect" id="v-3181" fill="#111111" rx="3" ry="3" x="-12.522119522094727" y="-8.52750015258789" width="26.697568893432617" height="15.850000381469727"  pointer-events="none" style="display: block;"></rect><text joint-selector="text" id="v-3180" font-size="11.2px" xml:space="preserve" fill="#eeea1e" text-anchor="middle" pointer-events="none" font-family="Tahoma, Verdana, Helvetica, Arial" font-weight="normal"  style="display: block;"><tspan dy="0.3em" >[CLI]</tspan></text></g><g id="v-3177"  label-idx="2" cursor="move" transform="matrix(1,0,0,1,1792.9853515625,1154.5999755859375)" style="cursor: default;"><rect joint-selector="rect" id="v-3183" fill="#ffffff" rx="3" ry="3" x="0" y="0" width="0" height="0"  display="none"></rect><text joint-selector="text" id="v-3182" fill="#000000" font-size="14" text-anchor="middle" text-vertical-anchor="middle" pointer-events="none"></text></g></g></g><!--z-index:36--><!--z-index:37--><!--z-index:38--><!--z-index:39--><!--z-index:40--><!--z-index:41--><!--z-index:42--><!--z-index:43--><!--z-index:44--><!--z-index:45--><!--z-index:46--><!--z-index:47--><!--z-index:48--><!--z-index:49--><!--z-index:50--><!--z-index:51--><!--z-index:52--><!--z-index:53--><!--z-index:54--><!--z-index:55--><!--z-index:56--><!--z-index:57--><!--z-index:58--><!--z-index:59--><!--z-index:60--><!--z-index:61--><!--z-index:62--><!--z-index:63--><!--z-index:64--><!--z-index:65--><!--z-index:66--><!--z-index:67--><!--z-index:68--><!--z-index:69--><!--z-index:70--><!--z-index:71--><!--z-index:72--><!--z-index:73--><!--z-index:74--><!--z-index:75--><!--z-index:76--><!--z-index:77--><!--z-index:78--><!--z-index:79--><!--z-index:80--></g><g  style="user-select: none;"></g><g ></g><g  display="none"></g></g></svg>